<?xml version="1.0" encoding="utf-8"?>
<!-- Generator: Adobe Illustrator 26.0.1, SVG Export Plug-In . SVG Version: 6.00 Build 0)  -->
<svg version="1.1" baseProfile="tiny" id="Layer_1" xmlns="http://www.w3.org/2000/svg" xmlns:xlink="http://www.w3.org/1999/xlink"
	 x="0px" y="0px" viewBox="0 0 81 30" overflow="visible" xml:space="preserve">
<g>
	<path fill="#FC0303" d="M4.1,4.5l2.6,4.8H5.9L5.2,8.1H2.9L2.3,9.3H1.6L4.1,4.5z M4.1,5.9L3.2,7.6H5L4.1,5.9z"/>
	<path fill="#FC0303" d="M7.3,4.6h0.7v4.7H7.3V4.6z"/>
	<path fill="#000B99" d="M11.7,4.7h1.2c0.6,0,1.1,0.1,1.4,0.4c0.4,0.2,0.5,0.6,0.5,0.9c0,0.3-0.1,0.6-0.4,0.8
		c-0.2,0.2-0.6,0.4-1.1,0.5l1.6,2h-0.8l-1.5-1.9h-0.2v1.9h-0.7V4.7z M12.5,5.2v1.6c1.1,0,1.6-0.2,1.6-0.8c0-0.2-0.1-0.4-0.2-0.5
		c-0.1-0.1-0.3-0.2-0.5-0.3S12.9,5.2,12.5,5.2z"/>
	<path fill="#000B99" d="M15.8,6.3h0.7V8c0,0.5,0.3,0.8,0.8,0.8c0.2,0,0.4-0.1,0.6-0.2s0.2-0.3,0.2-0.6V6.3h0.7v1.8
		c0,0.4-0.1,0.7-0.4,0.9c-0.3,0.2-0.7,0.4-1.1,0.4c-0.5,0-0.8-0.1-1.1-0.4c-0.3-0.2-0.4-0.6-0.4-0.9V6.3z"/>
	<path fill="#000B99" d="M22.1,6.2l1,2l1-1.9h0.6L23,9.3l-0.9-1.9l-0.9,1.9l-1.7-3h0.6l1,1.8L22.1,6.2z"/>
	<path fill="#000B99" d="M28.1,6.3h0.7v3h-0.7V8.7c-0.4,0.5-0.8,0.7-1.3,0.7c-0.5,0-0.9-0.2-1.2-0.5s-0.5-0.7-0.5-1.1
		c0-0.4,0.2-0.8,0.5-1.1c0.3-0.3,0.7-0.5,1.2-0.5c0.3,0,0.5,0.1,0.8,0.2c0.2,0.1,0.4,0.3,0.6,0.5V6.3z M28.2,7.8
		c0-0.3-0.1-0.5-0.3-0.7S27.3,6.8,27,6.8c-0.3,0-0.6,0.1-0.8,0.3s-0.3,0.4-0.3,0.7c0,0.3,0.1,0.5,0.3,0.7c0.2,0.2,0.5,0.3,0.8,0.3
		c0.3,0,0.6-0.1,0.8-0.3C28.1,8.3,28.2,8.1,28.2,7.8z"/>
	<path fill="#000B99" d="M29.8,5.3c0-0.1,0.1-0.2,0.2-0.3c0.1-0.1,0.2-0.1,0.4-0.1c0.2,0,0.3,0,0.4,0.1c0.1,0.1,0.2,0.2,0.2,0.3
		c0,0.1-0.1,0.2-0.2,0.3c-0.1,0.1-0.2,0.1-0.4,0.1c-0.2,0-0.3,0-0.4-0.1C29.8,5.5,29.8,5.4,29.8,5.3z M30,6.3h0.7v3H30V6.3z"/>
	<path fill="#000B99" d="M33.9,6.6L33.4,7c-0.1-0.1-0.2-0.1-0.3-0.2c-0.1,0-0.2-0.1-0.3-0.1c-0.3,0-0.4,0.1-0.4,0.3
		c0,0.1,0.2,0.3,0.6,0.4s0.7,0.3,0.8,0.4C33.9,8,34,8.2,34,8.4c0,0.3-0.1,0.5-0.4,0.7s-0.5,0.3-0.8,0.3c-0.5,0-0.9-0.2-1.2-0.6
		l0.6-0.2c0.2,0.2,0.4,0.3,0.6,0.3c0.2,0,0.3,0,0.4-0.1c0.1-0.1,0.2-0.2,0.2-0.2c0-0.2-0.2-0.3-0.6-0.4s-0.7-0.3-0.8-0.4
		c-0.2-0.1-0.2-0.3-0.2-0.5c0-0.2,0.1-0.5,0.3-0.6s0.5-0.2,0.8-0.2C33.2,6.2,33.5,6.3,33.9,6.6z"/>
	<path fill="#000B99" d="M36.9,4.7h3.3v0.6h-1.3v4h-0.7v-4h-1.3V4.7z"/>
	<path fill="#000B99" d="M40,7.8c0-0.4,0.2-0.8,0.6-1.1c0.4-0.3,0.8-0.5,1.3-0.5c0.5,0,0.9,0.2,1.3,0.5c0.4,0.3,0.6,0.7,0.6,1.1
		c0,0.4-0.2,0.8-0.6,1.1c-0.4,0.3-0.8,0.5-1.3,0.5c-0.5,0-1-0.2-1.3-0.5C40.2,8.6,40,8.2,40,7.8z M43.1,7.8c0-0.3-0.1-0.5-0.3-0.7
		s-0.5-0.3-0.8-0.3c-0.3,0-0.6,0.1-0.8,0.3c-0.2,0.2-0.3,0.4-0.3,0.7c0,0.3,0.1,0.5,0.3,0.7c0.2,0.2,0.5,0.3,0.8,0.3
		c0.3,0,0.6-0.1,0.8-0.3C43,8.2,43.1,8,43.1,7.8z"/>
	<path fill="#000B99" d="M44.4,6.3h0.7V8c0,0.5,0.3,0.8,0.8,0.8c0.2,0,0.4-0.1,0.6-0.2c0.1-0.1,0.2-0.3,0.2-0.6V6.3h0.7v1.8
		c0,0.4-0.1,0.7-0.4,0.9c-0.3,0.2-0.7,0.4-1.1,0.4c-0.5,0-0.8-0.1-1.1-0.4c-0.3-0.2-0.4-0.6-0.4-0.9V6.3z"/>
	<path fill="#000B99" d="M49.2,6.3v0.6c0.2-0.2,0.3-0.4,0.5-0.5c0.2-0.1,0.4-0.2,0.6-0.2c0.1,0,0.2,0,0.3,0l-0.2,0.6
		c-0.1,0-0.2,0-0.3,0c-0.2,0-0.5,0.1-0.6,0.2c-0.2,0.1-0.3,0.3-0.3,0.6v1.7h-0.7v-3H49.2z"/>
	<path fill="#000B99" d="M51.1,5.3c0-0.1,0.1-0.2,0.2-0.3c0.1-0.1,0.2-0.1,0.4-0.1c0.2,0,0.3,0,0.4,0.1c0.1,0.1,0.2,0.2,0.2,0.3
		c0,0.1-0.1,0.2-0.2,0.3c-0.1,0.1-0.2,0.1-0.4,0.1c-0.2,0-0.3,0-0.4-0.1C51.2,5.5,51.1,5.4,51.1,5.3z M51.3,6.3h0.7v3h-0.7V6.3z"/>
	<path fill="#000B99" d="M55.3,6.6L54.8,7c-0.1-0.1-0.2-0.1-0.3-0.2c-0.1,0-0.2-0.1-0.3-0.1c-0.3,0-0.4,0.1-0.4,0.3
		c0,0.1,0.2,0.3,0.6,0.4s0.7,0.3,0.8,0.4c0.2,0.2,0.3,0.3,0.3,0.5c0,0.3-0.1,0.5-0.4,0.7c-0.2,0.2-0.5,0.3-0.8,0.3
		c-0.5,0-0.9-0.2-1.2-0.6l0.6-0.2c0.2,0.2,0.4,0.3,0.6,0.3c0.2,0,0.3,0,0.4-0.1c0.1-0.1,0.2-0.2,0.2-0.2c0-0.2-0.2-0.3-0.6-0.4
		c-0.4-0.1-0.7-0.3-0.8-0.4C53.1,7.4,53,7.3,53,7.1c0-0.2,0.1-0.5,0.3-0.6s0.5-0.2,0.8-0.2C54.5,6.2,54.9,6.3,55.3,6.6z"/>
	<path fill="#000B99" d="M56,9.3v-3h0.7v0.5c0.2-0.2,0.3-0.3,0.5-0.4c0.2-0.1,0.3-0.1,0.5-0.1c0.3,0,0.5,0,0.6,0.1
		c0.2,0.1,0.3,0.3,0.4,0.5c0.2-0.2,0.4-0.4,0.5-0.5c0.2-0.1,0.4-0.1,0.6-0.1c0.3,0,0.5,0.1,0.7,0.3c0.2,0.2,0.3,0.4,0.3,0.6v2.2
		h-0.7v-2c0-0.3-0.2-0.5-0.6-0.5c-0.2,0-0.4,0.1-0.6,0.3c-0.2,0.2-0.2,0.4-0.2,0.6v1.6h-0.7V7.3c0-0.4-0.2-0.6-0.6-0.6
		c-0.2,0-0.4,0.1-0.6,0.2c-0.2,0.2-0.2,0.4-0.2,0.6v1.7H56z"/>
	<path fill="#FC0606" d="M64.4,4.7h0.7v4h1.8v0.6h-2.5V4.7z"/>
	<path fill="#FC0606" d="M67.5,8.8c0-0.1,0.1-0.2,0.2-0.3c0.1-0.1,0.2-0.1,0.4-0.1c0.2,0,0.3,0,0.4,0.1c0.1,0.1,0.2,0.2,0.2,0.3
		c0,0.1-0.1,0.2-0.2,0.3c-0.1,0.1-0.2,0.1-0.4,0.1s-0.3,0-0.4-0.1C67.5,9.1,67.5,9,67.5,8.8z"/>
	<path fill="#FC0606" d="M69.7,4.7h0.7v4h1.8v0.6h-2.5V4.7z"/>
	<path fill="#FC0606" d="M72.7,8.8c0-0.1,0.1-0.2,0.2-0.3c0.1-0.1,0.2-0.1,0.4-0.1c0.2,0,0.3,0,0.4,0.1c0.1,0.1,0.2,0.2,0.2,0.3
		c0,0.1-0.1,0.2-0.2,0.3c-0.1,0.1-0.2,0.1-0.4,0.1s-0.3,0-0.4-0.1C72.8,9.1,72.7,9,72.7,8.8z"/>
	<path fill="#FC0606" d="M79.2,4.8v0.7c-0.6-0.2-1.1-0.4-1.6-0.4c-0.6,0-1.2,0.2-1.6,0.5C75.6,6,75.3,6.5,75.3,7
		c0,0.5,0.2,0.9,0.7,1.3c0.4,0.3,1,0.5,1.7,0.5c0.5,0,1-0.1,1.5-0.4v0.7c-0.5,0.2-1,0.3-1.6,0.3c-0.8,0-1.6-0.2-2.1-0.7
		c-0.6-0.5-0.9-1.1-0.9-1.7c0-0.7,0.3-1.2,0.9-1.7c0.6-0.5,1.3-0.7,2.1-0.7C78.1,4.5,78.6,4.6,79.2,4.8z"/>
</g>
<g>
	<path fill="#FC0303" d="M13.6,21.2h-2c-0.5,0-0.7,0.2-0.7,0.6v1.6h-0.5v-1.6c0-1,0.4-1.5,1.3-1.5h1c-0.2-0.3-0.4-0.5-0.6-0.6
		c-0.2-0.1-0.3-0.2-0.5-0.2c-0.3,0-0.4,0.2-0.4,0.6h-0.5c0-0.4,0.1-0.7,0.3-0.9c0.2-0.2,0.4-0.3,0.7-0.3c0.4,0,0.7,0.1,1,0.4
		c0.3,0.2,0.6,0.6,1,1.1V21.2z"/>
	<path fill="#FC0303" d="M19.7,21.2h-2c-0.5,0-0.7,0.2-0.7,0.6v1.6h-0.5v-1.6c0-1,0.4-1.5,1.3-1.5h1c-0.2-0.3-0.4-0.5-0.6-0.6
		c-0.2-0.1-0.3-0.2-0.5-0.2c-0.3,0-0.4,0.2-0.4,0.6h-0.5c0-0.4,0.1-0.7,0.3-0.9c0.2-0.2,0.4-0.3,0.7-0.3c0.4,0,0.7,0.1,1,0.4
		c0.3,0.2,0.6,0.6,1,1.1V21.2z"/>
	<path fill="#FC0303" d="M23.3,16.4c1.5,1.1,2.3,2.2,2.3,3.2c0,0.5-0.2,0.9-0.5,1.2c-0.3,0.3-0.8,0.4-1.3,0.4h-1.4v-0.9h1.4
		c0.4,0,0.6-0.1,0.9-0.2c0.2-0.1,0.3-0.3,0.3-0.5c0-0.6-0.6-1.3-1.7-2L23.3,16.4L23.3,16.4z M23.4,15.5h-0.7v-0.7h0.7V15.5z"/>
	<path fill="#051ADD" d="M32.4,21.2c-0.4,0-0.7-0.1-0.9-0.4c-0.2-0.3-0.3-0.8-0.3-1.6c-0.1,0.2-0.3,0.3-0.5,0.5
		c-0.2,0.1-0.4,0.2-0.6,0.2c-0.4,0-0.6-0.1-0.9-0.4s-0.3-0.6-0.3-1.1c0-0.5,0.2-1,0.6-1.4s1-0.7,1.7-0.8v-0.4h0.6v3.4
		c0,0.4,0,0.6,0.1,0.8s0.2,0.2,0.4,0.2V21.2z M31.2,18.3v-1.5c-0.5,0.1-0.9,0.3-1.2,0.6c-0.3,0.3-0.4,0.6-0.4,1
		c0,0.2,0.1,0.3,0.2,0.4s0.2,0.2,0.4,0.2C30.5,19,30.9,18.8,31.2,18.3z M30.2,15.1h-0.7v-0.7h0.7V15.1z M31.6,15.1h-0.7v-0.7h0.7
		V15.1z"/>
	<path fill="#051ADD" d="M37.4,20.3c-0.6,0-1.4,0.2-2.6,0.5s-2,0.5-2.5,0.5c-0.2,0-0.3-0.1-0.4-0.3c-0.1-0.2-0.2-0.4-0.2-0.7h0.6
		c0.5,0,1.2-0.1,2.2-0.4s1.6-0.4,2-0.4c-1-0.9-2.1-1.4-3.2-1.4h-0.5v-0.9h0.5c0.3,0,0.5,0,0.8,0.1c0.2,0.1,0.5,0.1,0.7,0.2
		c0.2,0.1,0.5,0.2,0.7,0.4c0.2,0.2,0.5,0.3,0.8,0.6c0.2,0.2,0.5,0.4,0.8,0.7l0.2,0.2h0l0,0V20.3z"/>
	<path fill="#051ADD" d="M40.2,21.2c-0.5,0-0.8-0.1-1.1-0.4s-0.4-0.7-0.4-1.2v-6.2h0.6v6.1c0,0.3,0.1,0.5,0.2,0.6
		c0.1,0.1,0.3,0.2,0.6,0.2h0V21.2z"/>
	<path fill="#051ADD" d="M42.2,19.9c0,0.4-0.1,0.7-0.4,1c-0.3,0.2-0.7,0.4-1.2,0.4h-0.4c-0.2,0-0.3-0.1-0.4-0.3
		c-0.1-0.2-0.2-0.4-0.2-0.7h1c0.7,0,1-0.3,1-0.8v-1.9h0.6V19.9z M40.9,22.7h-0.7V22h0.7V22.7z M42.2,22.7h-0.7V22h0.7V22.7z"/>
	<path fill="#051ADD" d="M48.3,20.3c0,0.6-0.3,0.9-0.9,0.9H47c-0.5,0-0.8-0.1-1-0.4c-0.2,0.2-0.5,0.4-1,0.4c-0.5,0-0.8-0.1-1-0.4
		c-0.2,0.2-0.5,0.4-1.1,0.4h-0.4c-0.2,0-0.3-0.1-0.4-0.3c-0.1-0.2-0.2-0.4-0.2-0.7h1c0.5,0,0.7-0.2,0.7-0.7v-0.5h0.6v0.5
		c0,0.5,0.2,0.7,0.7,0.7c0.4,0,0.7-0.2,0.7-0.7v-0.5h0.6v0.5c0,0.5,0.2,0.7,0.7,0.7c0.4,0,0.7-0.1,0.7-0.4V18h0.6V20.3z"/>
	<path fill="#051ADD" d="M50.5,19.9c0,0.4-0.1,0.7-0.4,1s-0.7,0.4-1.2,0.4h-0.2c-0.2,0-0.3-0.1-0.4-0.3c-0.1-0.2-0.2-0.4-0.2-0.7
		h0.7c0.7,0,1-0.3,1-0.8v-6.1h0.6V19.9z"/>
	<path fill="#051ADD" d="M52.7,19.9c0,0.4-0.1,0.7-0.4,1s-0.7,0.4-1.2,0.4h-0.2c-0.2,0-0.3-0.1-0.4-0.3c-0.1-0.2-0.2-0.4-0.2-0.7H51
		c0.7,0,1-0.3,1-0.8v-6.1h0.6V19.9z"/>
	<path fill="#051ADD" d="M63.7,20.3c0,0.6-0.3,0.9-0.9,0.9h-0.4c-0.5,0-0.8-0.1-1-0.4c-0.2,0.2-0.5,0.4-1,0.4
		c-0.3,0-0.6-0.1-0.8-0.3c-0.2,1.7-0.9,2.5-2,2.5c-0.5,0-1-0.2-1.3-0.7c-0.3-0.5-0.5-1.1-0.5-1.9c0-0.6,0-1.1,0.1-1.6h0.6v0.1
		c-0.1,0.4-0.1,0.9-0.1,1.5c0,0.5,0.1,0.9,0.3,1.2c0.2,0.3,0.5,0.4,0.8,0.4c1,0,1.5-0.9,1.5-2.8v-0.5h0.6v0.5c0,0.5,0.2,0.7,0.7,0.7
		s0.7-0.2,0.7-0.7v-0.5h0.6v0.5c0,0.5,0.2,0.7,0.7,0.7c0.4,0,0.7-0.1,0.7-0.4V18h0.6V20.3z"/>
	<path fill="#051ADD" d="M66.1,19.9c0,0.4-0.1,0.7-0.4,1c-0.3,0.2-0.7,0.4-1.2,0.4h-0.4c-0.2,0-0.3-0.1-0.4-0.3
		c-0.1-0.2-0.2-0.4-0.2-0.7h1c0.7,0,1-0.3,1-0.8v-1.9h0.6V19.9z M64.8,22.7h-0.7V22h0.7V22.7z M66.1,22.7h-0.7V22h0.7V22.7z"/>
	<path fill="#051ADD" d="M69.8,20.4c-0.1,0.1-0.3,0.2-0.5,0.2c-0.4,0-0.7-0.1-0.9-0.4c-0.3-0.3-0.4-0.7-0.4-1.2c0-0.5,0.1-1,0.4-1.3
		c0.3-0.4,0.5-0.6,0.8-0.6c0.3,0,0.6,0.3,0.9,0.8s0.4,1.3,0.4,2.2c0,1-0.3,1.8-1,2.3c-0.7,0.5-1.6,0.8-2.9,0.8v-0.9
		c1.1,0,1.9-0.2,2.4-0.5C69.5,21.6,69.8,21.1,69.8,20.4z M69.7,19.5c0-0.3-0.1-0.6-0.2-0.9s-0.3-0.5-0.4-0.5c-0.1,0-0.2,0.1-0.4,0.3
		c-0.1,0.2-0.2,0.4-0.2,0.6c0,0.2,0.1,0.4,0.2,0.5c0.1,0.1,0.3,0.2,0.5,0.2C69.5,19.7,69.6,19.6,69.7,19.5z"/>
	<path fill="#051ADD" d="M74.7,18.6c0.3,0.6,0.5,1.1,0.5,1.7h0.5v0.9c-0.2,0-0.3-0.1-0.4-0.3c0-0.1-0.1-0.1-0.1-0.2
		c-0.1,0.8-0.5,1.4-1.1,1.8c-0.7,0.5-1.7,0.8-2.9,0.8v-0.9c1,0,1.8-0.2,2.4-0.5c0.6-0.3,0.9-0.8,0.9-1.5c0-0.6-0.3-1.1-0.8-1.8v-0.1
		H74.7z"/>
	<path fill="#F90606" d="M77.5,19.9c0,0.4-0.1,0.7-0.4,1s-0.7,0.4-1.2,0.4h-0.2c-0.2,0-0.3-0.1-0.4-0.3c-0.1-0.2-0.2-0.4-0.2-0.7
		h0.7c0.7,0,1-0.3,1-0.8v-6.1h0.6V19.9z"/>
	<path fill="#F90606" d="M79.4,21.2h-0.6v-7.8h0.6V21.2z"/>
</g>
</svg>
