<?xml version="1.0" encoding="utf-8"?>
<!-- Generator: Adobe Illustrator 26.0.1, SVG Export Plug-In . SVG Version: 6.00 Build 0)  -->
<svg version="1.1" baseProfile="tiny" id="Layer_1" xmlns="http://www.w3.org/2000/svg" xmlns:xlink="http://www.w3.org/1999/xlink"
	 x="0px" y="0px" viewBox="0 0 80 50" overflow="visible" xml:space="preserve">
<path d="M62.6,31.9c0.6-0.8,1.4-1.4,2.5-1c0.3,0.1,0.6,0.4,0.9,0.7c0.3,0.3,0.4,0.3,0.8,0c0.8-0.6,1.6-1.2,2.4-1.8
	c1-0.6,2.6-0.3,3.2,1c0.1,0.3,0.3,0.6,0.5,1c0.1-0.1,0.2-0.1,0.4-0.2c1-0.6,2-1.2,3-1.7c0.7-0.3,1-0.2,1.4,0.5
	c0.7,1.1,1.3,2.3,2,3.4c0.2,0.4,0.1,0.5-0.3,0.8c-0.6,0.4-1.3,0.4-1.9,0.4c-3.1,0.1-6.2,0.2-9.4,0.3c-2,0.1-4.1,0.2-6.1,0.2
	c-2.9,0.1-5.8,0.2-8.8,0.4c-3.2,0.2-6.3,0.5-9.5,0.7c-2,0.1-4.1,0.2-6.1,0.4c-2.5,0.2-4.9,0.5-7.4,0.7c-3.1,0.3-6.2,0.5-9.3,0.8
	c-2.3,0.2-4.6,0.4-7,0.6c-3.1,0.3-6.3,0.6-9.4,1c-0.3,0-0.5,0.3-0.8,0.5c-0.2,0.1-0.3,0.3-0.5,0.3c-0.2,0-0.4-0.2-0.4-0.4
	c0-0.2,0-0.4,0.2-0.5C3.1,40.1,3.3,40,3.5,40c1.5-0.2,3-0.4,4.5-0.6c3.5-0.4,6.9-0.7,10.4-1c4.1-0.4,8.3-0.8,12.4-1.1
	c3.3-0.3,6.6-0.6,9.8-0.9c2.4-0.2,4.7-0.3,7.1-0.5c0.3,0,0.6-0.1,0.9-0.1c0-0.1,0-0.1,0-0.2c-0.2-0.1-0.3-0.2-0.5-0.3
	c-1-0.5-1.4-1.7-0.8-2.7c1.4-2.3,4.8-3.6,7.3-2.7c0.5,0.2,0.7,0.1,0.7-0.4c0.3-2.1,0.6-4.1,0.9-6.2c0-0.2,0-0.3,0-0.5
	c-0.1-0.3-0.2-0.4-0.5-0.2c-2.7,1.8-4.7,4.3-6.9,6.6c-0.5,0.5-1,0.9-1.5,1.5c-0.7,0.9-0.9,1.9-0.9,3c0,0.7-0.4,0.6-0.8,0.7
	c-0.2,0-0.5-0.3-0.6-0.5c-0.6-1.5-0.5-1.4-1.9-0.8c-2,0.9-4,1.5-6.2,1.2c-0.9-0.1-1.6,0.2-2.4,0.3c-1.7,0.3-2.7,0.2-3.7-1.9
	c-0.1-0.1-0.1-0.2-0.3-0.4c-0.2,0.2-0.3,0.3-0.5,0.5c-1,1.1-2.1,2-3.7,2.3c-0.6,0.1-1.2,0.1-1.7,0c-1-0.2-1.4-1-1.6-1.9
	c-0.1-0.6-0.3-0.6-0.8-0.4c-1.6,0.7-3.3,0.5-5,0.1c-0.5-0.1-1.1-0.5-1.5-0.8c-0.6-0.5-1.2-0.5-1.9-0.1C11.6,33.5,9.3,34.8,7,36
	c-1.8,1-3.8,1.8-5.7,2.7c-0.3,0.2-0.7,0.3-1,0.4c0-0.1,0-0.2,0-0.2c1.3-0.7,2.6-1.3,3.9-2c3.2-1.8,6.3-3.6,9.5-5.3
	c0.5-0.3,0.5-0.6,0.2-1c-0.7-1.1-1.3-2.2-1.4-3.5c-0.2-2.5,0.4-4.7,2.3-6.4c0.9-0.8,2-1.4,3.1-2c0.4-0.2,0.5-0.4,0.4-0.9
	c-0.5-2.3-1-4.5-1.4-6.8c-0.1-0.5-0.1-1,0-1.4c0-0.5,0.5-0.8,0.9-0.7c0.4,0.1,0.7,0.5,0.5,1c-0.5,1.5-0.4,3,0,4.5
	c0.3,1.1,0.5,2.2,0.8,3.3c0.1,0.5,0.4,0.6,0.8,0.5c2.2-0.2,3.7,1.2,3.7,3.5c0,0.2,0,0.5,0,0.7c-0.1,0.8,0,0.9,0.8,1
	c1.1,0.2,2.2,0.1,3.3-0.4c0.5-0.2,0.6-0.5,0.7-1c0.3-1.9,0.5-3.8,0.9-5.6c0.5-2.3,1.7-4.2,4-5.3c1.3-0.6,1.8-0.1,2.2,1.2
	c0.9,2.6,0.6,5.1-1.5,7.1c-1.3,1.2-2.7,2.2-4.1,3.3c-0.5,0.4-0.8,0.8-0.9,1.4c-0.2,1.6-0.8,3.1-1.6,4.5c-0.1,0.2-0.2,0.5-0.3,0.8
	c0,0,0.1,0.1,0.1,0.1c0.5-0.2,1-0.5,1.6-0.7c1.4-0.4,2.7-0.7,4.1-0.3c0.9,0.3,1.2,0.8,1.2,1.8c-0.7-0.5-1.4-0.9-2.1-1.4
	c-0.1,0-0.1,0.1-0.2,0.1c-0.2,1.6-0.6,3.1,0.4,4.6c0.3,0.4,0.7,0.7,1.3,0.6c0.6-0.1,1.2-0.1,1.8-0.2c-0.2-0.6-0.4-1-0.4-1.4
	c-0.1-1,0.6-1.4,1.3-1.8c1.1-0.7,2.4-1,3.7-1c0.8,0,1.3-0.3,1.6-0.9c0.7-1.1,1.4-2.2,2-3.4c1.2-2.4,3-4.4,4.8-6.4
	c0.2-0.2,0.4-0.5,0.7-0.7c0.2-0.1,0.5-0.2,0.7-0.1c0.1,0,0.2,0.4,0.2,0.6c-0.3,1.6-0.7,3.2-1.1,4.8c-0.5,1.9-1,3.9-1.4,5.8
	c0,0.1,0,0.2,0,0.6c0.5-0.4,0.8-0.7,1.2-1c1.5-1.5,2.9-3,4.5-4.5c1-1,2-1.9,3.1-2.8c0.2-0.1,0.5-0.2,0.7-0.1
	c0.2,0.1,0.4,0.4,0.4,0.7c-0.1,1.4-0.1,2.7-0.3,4.1c-0.3,2.6-0.6,5.2-0.8,7.8c0,0.1,0,0.1,0.1,0.2c0.2,0,0.4,0,0.5-0.1
	c0.4-0.1,0.8-0.4,1.3-0.5c1.2-0.3,1.9-1.1,2.5-2.1c0.3-0.6,0.9-1.2,1.4-1.7c0.1-0.1,0.6-0.2,0.7-0.1c0.2,0.2,0.4,0.5,0.4,0.8
	C62.8,31.1,62.7,31.5,62.6,31.9c-0.6,0.4-1.3,0.7-1.7,1.2c-0.4,0.3-0.5,0.9-0.7,1.4c-0.1,0.5,0.3,0.8,0.7,0.5
	c0.3-0.2,0.6-0.5,0.8-0.8c0.3-0.5,0.6-1.1,0.8-1.7C62.5,32.3,62.5,32.1,62.6,31.9z M13.1,25.5c0,1.8,0.3,3.2,1.2,4.5
	c0.6,0.8,0.8,0.9,1.6,0.3c1.4-1.1,2.8-2.2,4-3.4c0.9-0.8,1.5-1.8,2.3-2.8c0.3-0.4,0.2-0.8-0.2-1.1c-1.2-0.9-2.1-2.1-2.8-3.4
	c-0.4-0.7-0.5-0.8-1.1-0.4c-0.9,0.5-1.7,1.1-2.6,1.7C13.7,22.2,13.4,24,13.1,25.5z M19.8,32.8c1.8-0.1,3-0.6,4.6-1.9
	c2.1-1.7,3-4.1,3.6-6.6c0.1-0.5-0.1-0.6-0.5-0.4c-1.2,0.4-2.4,0.4-3.6,0.2c-0.5-0.1-0.7,0-1,0.4c-0.4,0.7-0.9,1.4-1.4,2
	c-1.6,1.8-3.5,3.2-5.5,4.6c-0.5,0.4-0.5,0.5,0,0.9C17.1,32.7,18.5,32.7,19.8,32.8z M49,19.4c-0.3,0-0.4,0-0.4,0
	c-0.1,0.1-0.2,0.1-0.3,0.2c-1.6,1.2-2.6,2.9-3.7,4.5c-1.1,1.7-2,3.5-3,5.2c-0.3,0.4,0,0.5,0.3,0.6c1,0.2,1.9,0.5,2.6,1.3
	c0.5,0.5,1.3,0.3,1.5-0.3c0.2-0.5,0.3-1.1,0.5-1.6c0.6-2.1,1.2-4.3,1.8-6.4C48.5,21.7,48.7,20.6,49,19.4z M29.2,21.9
	c0.2,0,0.2,0,0.3,0c0.1,0,0.2,0,0.2-0.1c1.7-1.1,3.3-2.2,4.4-3.9c1.1-1.6,1.1-3.5,0.6-5.4c-0.3-1.1-1-1.3-1.9-0.7
	c-1.3,0.9-2.2,2.2-2.6,3.7c-0.4,1.3-0.6,2.7-0.9,4.1C29.3,20.4,29.3,21.1,29.2,21.9z M50.7,35.2c0.9-0.1,2-0.2,3.1-0.4
	c0.2,0,0.5-0.3,0.6-0.6c0.2-0.7,0.2-1.5,0.3-2.3c0.1-0.9-0.2-1.3-1.1-1.4c-2.1-0.4-3.8,0.3-5.1,2c-0.7,1-0.7,2.2,0.9,2.5
	C49.7,35.1,50.1,35.1,50.7,35.2z M25.6,34.7c1.8-0.1,3.1-1.1,4.2-2.3c0.5-0.6,0.7-1.3,0.6-2.1c0-0.2,0-0.5,0-0.7
	c0.1-0.7,0-0.8-0.7-0.6c-2,0.6-3.7,1.5-5.2,3c-0.6,0.6-0.7,1.2-0.4,1.9C24.3,34.5,24.8,34.8,25.6,34.7z M65.9,35
	c1.9-0.1,3.6-0.2,5.3-0.3c0.1,0,0.2-0.2,0.3-0.3c0.1-0.7,0.3-1.3,0.3-2c0-1.1-0.8-1.9-1.7-1.9c-1.1,0-1.8,0.7-2.5,1.3
	C66.5,32.6,66.4,33.8,65.9,35z M72.7,34.6c1.8-0.2,3.4-0.3,5-0.5c0.5-0.1,0.6-0.3,0.3-0.8c-0.3-0.6-0.7-1.3-1-1.9
	c-0.3-0.6-0.6-0.7-1.2-0.4c-1.2,0.6-2.1,1.6-2.8,2.7C72.9,33.9,72.8,34.2,72.7,34.6z M37.2,33.8c0.5,0,0.8,0.1,1.2,0.1
	c1.9-0.2,3.6-0.8,5.3-1.5c0.4-0.2,0.4-0.4,0.1-0.8c-0.8-0.9-1.8-1.2-2.9-1.1c-0.2,0-0.4,0.2-0.5,0.4c-0.7,0.7-1.4,1.4-2.2,2.1
	C37.9,33.2,37.6,33.4,37.2,33.8z M39.6,30.4c-1.1,0-2.3,0.4-3.1,0.9c-0.6,0.4-0.8,1.2-0.4,1.8c0.2,0.3,0.4,0.4,0.7,0.2
	c1-0.8,2-1.6,3-2.4c0.1-0.1,0.2-0.3,0.1-0.4C39.8,30.4,39.6,30.4,39.6,30.4z M64.6,34.9c0.3-0.5,0.4-0.9,0.6-1.2
	c0.3-0.5,0-1.4-0.6-1.9c-0.4-0.2-0.8-0.1-1.1,0.6c-0.4,0.8-0.7,1.7-1,2.6C63.3,35,64,35,64.6,34.9z M22.8,21.7c0,0,0.1,0,0.1,0
	c-0.2-0.6-0.4-1.2-0.7-1.8c-0.3-0.5-0.7-1-1.4-1.1c-0.4,0-0.8,0-1.1,0c0.1,0.4,0.2,0.8,0.4,1c0.6,0.8,1.3,1.7,2,2.5
	c0.3,0.4,0.6,0.2,0.6-0.3C22.8,21.9,22.8,21.8,22.8,21.7z M55.7,35.2c0,0.1,0,0.1,0,0.2c0.2,0,0.4,0.1,0.6,0.1c0.7,0,1.4,0,2.1-0.1
	c0.2,0,0.6-0.1,0.6-0.2c0.1-0.3,0-0.7,0-1.1c-0.2,0.1-0.5,0.1-0.7,0.2c-0.2,0-0.4,0.1-0.5,0.2C57,34.7,56.4,35,55.7,35.2z"/>
</svg>
