<?xml version="1.0" encoding="utf-8"?>
<!-- Generator: Adobe Illustrator 26.0.1, SVG Export Plug-In . SVG Version: 6.00 Build 0)  -->
<svg version="1.1" baseProfile="tiny" id="Layer_1" xmlns="http://www.w3.org/2000/svg" xmlns:xlink="http://www.w3.org/1999/xlink"
	 x="0px" y="0px" viewBox="0 0 50 50" overflow="visible" xml:space="preserve">
<g>
	<path fill="#4F50B3" d="M48,25c0,12.7-10.3,23-23,23C12.4,48,2,37.7,2,25.1C2,12.3,12.2,2,25,2C37.7,2,48,12.3,48,25z M47.4,25
		C47.4,12.3,37,2.5,24.8,2.6C12.5,2.7,2.6,12.8,2.6,25.1c0,12.3,10.1,22.3,22.5,22.3C37.3,47.4,47.4,37.5,47.4,25z"/>
	<path fill="#FFFFFF" d="M47.4,25c0,12.5-10.1,22.3-22.3,22.4c-12.4,0-22.5-9.9-22.5-22.3c0-12.3,9.9-22.4,22.2-22.5
		C37,2.5,47.4,12.3,47.4,25z M25,3.2C13,3.2,3.2,13,3.2,25C3.2,37,13,46.8,25,46.8c12,0,21.8-9.7,21.8-21.8C46.8,13,37.1,3.2,25,3.2
		z"/>
	<path fill="#4F50B3" d="M25,3.2c12,0,21.8,9.7,21.8,21.8c0,12.1-9.7,21.8-21.8,21.8C13,46.8,3.2,37,3.2,25C3.2,13,13,3.2,25,3.2z
		 M46.4,25c0-11.8-9.6-21.4-21.4-21.4C13.2,3.6,3.6,13.1,3.6,25c0,11.8,9.6,21.4,21.4,21.4C36.8,46.4,46.4,36.8,46.4,25z"/>
	<path fill="#FFFFFF" d="M46.4,25c0,11.8-9.6,21.4-21.4,21.4C13.2,46.4,3.6,36.8,3.6,25C3.6,13.1,13.2,3.6,25,3.6
		C36.9,3.6,46.4,13.2,46.4,25z M40.4,25c0-8.5-6.8-15.3-15.3-15.3C16.5,9.7,9.7,16.5,9.7,25c0,8.5,6.8,15.3,15.3,15.3
		C33.5,40.3,40.3,33.5,40.4,25z M19.8,5.4C20,6.2,20.2,7,20.4,7.8c0.1,0.5,0.3,0.6,0.8,0.5c0.3-0.1,0.7-0.1,1-0.2
		c0.5-0.2,0.9-0.2,1.4-0.2c0.4,0,0.9,0,1.3-0.1c0.4,0,0.9-0.1,1.3,0c0.5,0.2,0.9,0.1,1.4,0.1c0.6,0.1,1.2,0.5,1.9,0.3
		c0,0,0.1,0,0.1,0c0.4,0.5,1,0.5,1.5,0.7c0.3,0.1,0.6,0.1,0.7-0.2c0.3-0.8,0.6-1.6,1-2.5c-0.2-0.1-0.4-0.1-0.6-0.2
		c-0.2,0.6-0.4,1.1-0.6,1.6c-0.4,1-0.3,0.8-1.1,0.5c-0.6-0.2-0.7-0.3-0.5-0.9c0.2-0.6,0.3-1.1,0.5-1.7c-0.2-0.1-0.4-0.1-0.6-0.2
		c-0.2,0.7-0.4,1.4-0.6,2c-0.1,0.3-0.3,0.4-0.6,0.3c-0.2-0.1-0.5-0.2-0.7-0.2c-0.3,0-0.4-0.2-0.4-0.5c0-0.2,0-0.5,0-0.7
		c-0.2,0-0.3-0.1-0.5-0.1c0,0.3,0,0.6-0.1,0.9c0,0.1-0.2,0.3-0.3,0.4c-0.1-0.1-0.3-0.3-0.3-0.4c-0.1-0.2,0-0.5,0-0.7
		c-0.2,0-0.4,0-0.6,0c0,0.2,0,0.4,0,0.6c0,0.2-0.2,0.3-0.3,0.4c-0.1-0.2-0.3-0.3-0.3-0.5c-0.1-0.2,0-0.4,0-0.7c-0.2,0-0.4,0-0.5,0
		c0,0.4-0.1,0.7-0.1,1c-0.3,0.1-0.6,0.1-0.9,0.2c-0.5,0.1-0.7,0-0.8-0.6c0-0.2-0.1-0.4-0.1-0.6c-0.2,0-0.4,0-0.5,0.1
		c0,0.1,0,0.2,0,0.2c0.1,1,0.1,1-0.9,1.2c-0.4,0.1-0.5,0-0.6-0.4c-0.1-0.7-0.3-1.3-0.5-2C20.2,5.3,20,5.3,19.8,5.4z M35.2,11.1
		c0.2,0.6,0.9,0.4,1.2,0.9c0.3,0.4,0.9,0.5,1.2,0.9c-0.2,0.4,0.2,0.6,0.4,0.8c0.2,0.2,0.5,0.3,0.8,0c0.3-0.3,0.6-0.5,0.9-0.8
		c-0.1-0.2-0.2-0.3-0.4-0.4c-0.2,0.2-0.3,0.3-0.5,0.5c-0.2,0.1-0.4,0.2-0.5,0.2c-0.2-0.2-0.6-0.3-0.3-0.7c-0.9-0.6,0-1,0.1-1.5
		c-0.1-0.1-0.3-0.2-0.4-0.3c-0.2,0.3-0.3,0.5-0.5,0.7c-0.1,0.1-0.3,0.2-0.4,0.2c0-0.2-0.1-0.4-0.1-0.6c0.1-0.2,0.2-0.4,0.4-0.6
		c-0.2-0.1-0.3-0.2-0.5-0.3c-0.2,0.2-0.3,0.4-0.4,0.6c-0.1,0.1-0.3,0.1-0.4,0.2c0-0.2-0.1-0.4-0.1-0.5c0.1-0.2,0.2-0.4,0.4-0.6
		c-0.2-0.1-0.3-0.2-0.5-0.3c-0.3,0.4-0.5,0.8-0.8,1.1c-0.3,0.4-0.7,0.4-1,0.2c-0.3-0.2-0.4-0.6-0.1-1C33.9,9.5,34,9.2,34.2,9
		c-0.2-0.1-0.3-0.2-0.5-0.4C33.5,9,33.2,9.4,33,9.9c-0.2,0.5,0,1,0.4,1.3c0.4,0.3,0.9,0.4,1.3,0.2C34.9,11.3,35,11.2,35.2,11.1z
		 M14.4,41.1C14.4,41.1,14.3,41.1,14.4,41.1c0.3-0.9,0.8-1.7,1.2-2.5c-0.2-0.2-0.3-0.3-0.5,0c-0.5,0.6-1.1,1.2-1.7,1.8
		c0,0-0.1,0-0.1-0.1c0.4-0.8,0.8-1.6,1.3-2.4c-0.2-0.1-0.3-0.2-0.4-0.3c-0.6,1.2-1.2,2.3-1.8,3.4c0.2,0.1,0.3,0.2,0.5,0.3
		c0.5-0.5,1-1.1,1.5-1.6c0,0,0.1,0.1,0.1,0.1c-0.3,0.5-0.5,1-0.8,1.5c-0.3,0.5-0.2,0.5,0.3,0.7c0.9-0.9,1.7-1.8,2.6-2.8
		c-0.2-0.1-0.3-0.2-0.4-0.3C15.6,39.8,15,40.5,14.4,41.1z M34.6,38.6c0.8,1,1.7,1.9,2.5,2.9c0.1-0.1,0.2-0.2,0.4-0.3
		c-0.7-0.8-1.3-1.5-2-2.3c0,0,0.1,0,0.1-0.1c0.7,0.6,1.4,1.2,2.1,1.7c0.1,0.1,0.2,0.1,0.4,0.1c0-0.1,0-0.3-0.1-0.4
		c-0.3-0.4-0.5-0.9-0.8-1.3c-0.2-0.3-0.4-0.7-0.6-1c0,0,0.1,0,0.1-0.1c0.6,0.7,1.3,1.5,1.9,2.2c0.1-0.1,0.2-0.2,0.3-0.3
		c-0.8-1-1.7-1.9-2.5-2.9c-0.2,0.2-0.4,0.3-0.6,0.5c0.4,0.7,0.8,1.3,1.2,2c0,0-0.1,0-0.1,0.1c-0.5-0.4-1-0.8-1.4-1.2
		c-0.3-0.3-0.5-0.3-0.7,0C34.8,38.5,34.7,38.5,34.6,38.6z M19.9,8.5c-0.3-0.6-0.7-1.1-1.4-1.2c-0.5-0.1-0.9,0.2-1.2,0.7
		c0.1,0.1,0.2,0.2,0.3,0.3c0.6-0.6,1-0.6,1.4,0c0,0-0.1,0.1-0.1,0.1c-0.7,0.3-1.4,0.6-2.1,1c-0.2,0.1-0.4,0-0.5-0.2
		c-0.2-0.4-0.4-0.7-0.6-1.1c-0.3,0.2-0.5,0.3-0.7,0.4c-0.5,0.2-0.7,0.6-0.4,1c0.2,0.6,0.6,0.7,1.1,0.5c0.1-0.1,0.3-0.1,0.4-0.1
		c0.4,0.2,0.6,0.1,0.9-0.1c0.4-0.2,0.9-0.5,1.4-0.7C18.9,8.9,19.3,8.8,19.9,8.5z M44,17.9c-0.6,0.3-1.2,0.5-1.9,0.8
		c-0.5,0.2-0.6,0.2-0.7-0.3c-0.1-0.2-0.1-0.3-0.2-0.5c-0.2-0.3-0.1-0.5,0.2-0.7c0.2-0.1,0.4-0.3,0.7-0.4c-0.1-0.2-0.2-0.3-0.3-0.5
		c-0.4,0.2-0.8,0.4-1.1,0.6c-0.4,0.2-0.8,0.2-1.1-0.1c-0.1-0.1-0.2-0.2-0.4-0.3c0,0.3-0.1,0.5,0,0.7c0.3,0.5,0.8,0.6,1.4,0.5
		c0.2,0.5,0.3,0.9,0.5,1.3c0.1,0.3,0.4,0.5,0.7,0.4c0.8-0.3,1.6-0.6,2.4-1C44.2,18.2,44.1,18,44,17.9z M8.3,36.7
		c0.1,0.1,0.2,0.2,0.3,0.4c0.4-0.3,0.7-0.6,1.1-0.8c0.2-0.2,0.3-0.1,0.5,0.1c0.1,0.2,0.1,0.4-0.1,0.6c-0.2,0.2-0.4,0.3-0.6,0.5
		c-0.4,0.3-0.4,0.3,0,0.7c0.5-0.5,0.9-1,1.4-1.5c0.4,0,0.8-0.3,1-0.7c0.1-0.2,0.1-0.5,0-0.7c-0.2-0.3-0.4-0.6-0.7-0.9
		C10.3,35.1,9.3,35.9,8.3,36.7z M30.7,42.9c0.5-0.3,0.7-0.2,0.9,0.3c0.1,0.3,0.3,0.7,0.4,1c0.2-0.1,0.3-0.1,0.5-0.2
		c-0.4-0.6-0.4-1.4-1-1.7c0.2-0.5,0-1.3-0.3-1.5c-0.6-0.4-1.1,0.1-1.6,0.2c0.4,1.3,0.8,2.5,1.2,3.7c0.2-0.1,0.3-0.1,0.4-0.2
		C31,43.9,30.9,43.4,30.7,42.9z M25,43.4c0.1,0.4,0.1,1,0.2,1.5c0.1,0.4,0.4,0.5,0.8,0.5c0.4,0,0.7-0.2,0.7-0.6
		c0.2-0.9,0.2-1.9-0.1-2.8c-0.1-0.4-0.4-0.6-0.8-0.6c-0.4,0-0.7,0.3-0.8,0.7C25.1,42.5,25,42.9,25,43.4z M12.7,36.1
		c-0.3,0.3-0.5,0.5-0.7,0.7c-0.5,0.5-1,1.1-1.5,1.7c-0.3,0.4-0.2,0.8,0.2,1.1c0.3,0.3,0.8,0.4,1.1,0c0.8-0.7,1.5-1.5,2.2-2.3
		c-0.1-0.1-0.2-0.2-0.4-0.4c-0.1,0.2-0.2,0.3-0.4,0.4c-0.5,0.6-1,1.1-1.6,1.6c-0.2,0.2-0.4,0.3-0.6,0.1c-0.2-0.2-0.1-0.4,0.1-0.6
		c0.3-0.4,0.7-0.7,1-1.1c0.3-0.3,0.6-0.7,0.9-1C12.9,36.3,12.8,36.2,12.7,36.1z M29.1,41.1c-0.4,0-0.5,0-0.4,0.4
		c0.1,0.3,0.1,0.7,0.2,1c0.1,0.5,0.2,1.1,0.2,1.6c0,0.1-0.2,0.3-0.3,0.5c-0.1-0.1-0.3-0.2-0.4-0.3c-0.1-0.1-0.1-0.2-0.1-0.4
		c-0.1-0.7-0.3-1.5-0.4-2.2c-0.1-0.3-0.2-0.4-0.6-0.2c0.2,1.1,0.4,2.2,0.7,3.3c0.1,0.4,0.5,0.5,1,0.4c0.4-0.1,0.7-0.4,0.6-0.9
		C29.4,43.2,29.2,42.2,29.1,41.1z M9.2,21.5C9.2,21.5,9.2,21.5,9.2,21.5c-0.5-0.2-0.8-0.3-1.2-0.4c-0.1-0.1-0.2-0.2-0.4-0.3
		c0.1-0.1,0.2-0.3,0.4-0.3c0.5-0.2,0.8-0.7,0.6-1.2c-0.2-0.5-0.9-0.7-1.3-0.5c-0.4,0.2-0.7,0.9-0.4,1.3c0.2,0.3,0.2,0.5,0.1,0.7
		c-0.1,0.3,0,0.6,0.3,0.7c0.6,0.2,1.1,0.3,1.7,0.5C9.1,21.8,9.2,21.7,9.2,21.5z M19.3,43.9c0,0.5,0.2,0.8,0.7,0.9
		c0.4,0.1,0.7-0.1,0.9-0.6c0.2-0.5,0.2-1-0.2-1.5c-0.2-0.2-0.4-0.5-0.4-0.8c0-0.1,0.2-0.5,0.3-0.5c0.3-0.1,0.3,0.2,0.3,0.4
		c0,0.1,0,0.2,0,0.2c0,0.1,0.1,0.1,0.2,0.2c0.1,0,0.2,0,0.2-0.1c0.2-0.2,0-0.9-0.2-1.1c-0.3-0.3-0.8-0.2-1.1,0.1
		c-0.3,0.4-0.4,1-0.1,1.5c0.1,0.2,0.3,0.5,0.4,0.7c0.1,0.2,0.1,0.4,0.1,0.6c0,0.1-0.3,0.2-0.4,0.3c-0.1-0.2-0.2-0.3-0.2-0.5
		c0-0.2,0.2-0.5-0.2-0.5C19.2,43.3,19.4,43.7,19.3,43.9C19.3,43.9,19.3,43.9,19.3,43.9z M5.5,31.1c0.1,0.5,0.1,0.5,0.7,0.3
		c0.3-0.1,0.4,0,0.5,0.2c0.1,0.3,0,0.4-0.2,0.5c-0.2,0.1-0.3,0.2-0.5,0.3c0.1,0.2,0.1,0.3,0.2,0.5c1.1-0.7,2.2-1.3,3.3-2
		c-0.1-0.2-0.2-0.4-0.3-0.6C8,30.6,6.8,30.8,5.5,31.1z M16.8,43.7c0.4-1.2,0.8-2.4,1.2-3.7c-0.2-0.1-0.4-0.2-0.6-0.3
		c-0.8,1-1.5,2.1-2.3,3.1c0.7,0.4,0.7-0.5,1.1-0.5c0.5,0.2,0.6,0.2,0.3,0.8C16.4,43.4,16.4,43.6,16.8,43.7z M10.3,18.2
		c0.1-0.2,0.2-0.3,0.3-0.5c-0.4-0.2-0.8-0.4-1.2-0.7c-0.1-0.1-0.2-0.2-0.2-0.3c0-0.1,0.2-0.2,0.3-0.3c0,0,0.1,0,0.2,0
		c0.5,0,0.9-0.6,0.8-1c-0.1-0.5-0.7-0.9-1.2-0.8c-0.4,0.1-0.8,0.7-0.6,1.2c0.1,0.3,0.1,0.5-0.1,0.7c-0.2,0.4-0.2,0.7,0.2,0.9
		C9.3,17.7,9.8,17.9,10.3,18.2z M34.1,41.8c0.1,0.2,0.2,0.4,0.4,0.6c0.3,0.4,0.6,0.4,1,0.2c0.4-0.2,0.5-0.5,0.4-1
		c-0.2-0.5-0.5-1-1.1-1.1c-0.2,0-0.5-0.1-0.7-0.2c-0.2-0.1-0.3-0.2-0.4-0.4c-0.1-0.1,0-0.3,0.1-0.4c0.1-0.1,0.3,0,0.4,0
		c0.1,0.1,0.2,0.2,0.3,0.3c0.1-0.1,0.2-0.1,0.4-0.2c-0.1-0.2-0.3-0.3-0.4-0.5c-0.3-0.3-0.6-0.3-1-0.1c-0.3,0.2-0.4,0.5-0.3,0.9
		c0.1,0.5,0.4,0.8,0.9,1c0.3,0.1,0.6,0.1,0.8,0.2c0.2,0.1,0.4,0.2,0.5,0.4c0.1,0.1-0.1,0.3-0.1,0.5c-0.2,0-0.3,0-0.5-0.1
		c-0.1-0.1-0.2-0.3-0.3-0.4C34.4,41.6,34.3,41.7,34.1,41.8z M43.6,29.3c0.2,0.1,0.4,0.1,0.6,0.2c0.1,0.1,0.2,0.2,0.2,0.3
		c0,0.1-0.2,0.2-0.3,0.2c-0.8-0.2-1.6-0.3-2.4-0.5c-0.1,0-0.2-0.2-0.2-0.3c0-0.1,0.2-0.2,0.3-0.2c0.1,0,0.3,0,0.5,0
		c0-0.1,0.1-0.3,0.1-0.4c-0.2,0-0.4-0.1-0.6-0.1c-0.4,0-0.7,0.2-0.8,0.6c-0.1,0.4,0,0.7,0.4,0.9c0.9,0.4,1.9,0.6,2.9,0.6
		c0.4,0,0.7-0.3,0.7-0.7c0-0.5-0.6-1-1.2-0.9C43.7,29,43.6,29.1,43.6,29.3z M38.3,15.2c-0.2,0.5-0.1,0.8,0.5,0.9
		c0.6,0.1,1.6-0.3,1.9-0.8c0.1-0.1,0.1-0.2,0.1-0.4c0-0.4-0.2-0.7-0.6-0.9c-0.4-0.2-0.7-0.1-1,0.2c-0.3,0.3-0.4,0.6-0.2,1
		c0,0.1,0.1,0.2,0.1,0.4C38.9,15.5,38.6,15.4,38.3,15.2z M22.8,42c0.3,0,0.7-0.1,0.6,0.4c-0.1,0.8-0.1,1.7-0.2,2.5
		c0,0.2-0.1,0.4,0.2,0.4c0.3,0,0.3-0.2,0.3-0.4c0.1-0.8,0.1-1.6,0.2-2.4c0-0.3,0.1-0.4,0.4-0.4c0.1,0,0.1,0,0.2,0c0-0.2,0-0.3,0-0.5
		c-0.6,0-1.1-0.1-1.7-0.1C22.8,41.6,22.8,41.8,22.8,42z M6.6,33.8c0.2,0.5,0.4,0.9,0.7,1.3c0.2-0.1,0.4-0.2,0.5-0.3
		c-0.1-0.3-0.3-0.6-0.4-0.9c1-0.5,1.9-1,2.8-1.5C10.1,32.3,10,32.2,10,32C8.8,32.6,7.7,33.2,6.6,33.8z M42,24.7
		c0.7,0.3,0.8,0.9,0.4,1.5c0.3-0.2,0.6-0.5,0.9-0.5c0.3,0,0.5,0.3,0.8,0.5c-0.1-0.3-0.3-0.7-0.2-0.9c0.1-0.2,0.4-0.4,0.6-0.6
		c-0.8,0.2-1.1-0.3-1.2-1.1c-0.2,0.4-0.2,0.8-0.4,0.9C42.7,24.7,42.3,24.7,42,24.7z M40.8,37c-0.9-0.6-1.8-1.2-2.6-1.9
		c-0.1,0.2-0.2,0.3-0.2,0.4c1,0.7,2.1,1.5,3.1,2.2c0.3-0.4,0.6-0.8,0.8-1.2c-0.2-0.1-0.3-0.2-0.5-0.3C41.1,36.5,41,36.7,40.8,37z
		 M5.8,26.3c0.6-0.6,1.1-0.6,1.6,0c-0.1-0.4-0.2-0.7-0.2-1c0.1-0.2,0.4-0.4,0.6-0.6c0,0,0-0.1,0-0.1c-0.8,0.3-1.2-0.2-1.3-0.9
		c-0.1,0.8-0.5,1.2-1.4,1C6.2,25.1,6.2,25.6,5.8,26.3z M43.2,32.8c-0.2,0.3-0.3,0.6-0.4,0.9c-1-0.4-2-0.9-2.9-1.3
		c-0.1,0.2-0.1,0.3-0.2,0.4c1.2,0.5,2.3,1,3.5,1.6c0.2-0.5,0.4-0.9,0.6-1.3C43.6,33,43.4,32.9,43.2,32.8z M11.9,13.9
		c0.5-0.5,1-1,1.4-1.5c-0.7-0.8-1.5-0.9-2.1-0.4c0.1,0.2,0.3,0.4,0.6,0.3c0.2-0.1,0.4,0,0.6,0.1C12.3,12.9,11.4,13,11.9,13.9z
		 M31.8,40.1c0.5,1.2,1,2.3,1.6,3.5c0.2-0.1,0.3-0.2,0.4-0.2c-0.5-1.2-1-2.3-1.6-3.5C32.1,40,32,40,31.8,40.1z M19.1,40.5
		c-0.5,1.2-0.9,2.3-1.4,3.5c0.2,0.1,0.3,0.1,0.5,0.2c0.5-1.2,0.9-2.4,1.4-3.6C19.4,40.6,19.2,40.5,19.1,40.5z M41.5,20.3
		c0.1,0.2,0.1,0.4,0.2,0.6c1-0.3,2-0.6,3-0.9c-0.1-0.2-0.1-0.4-0.2-0.6C43.5,19.7,42.5,20,41.5,20.3z M10.5,11.3
		c0.2,0.1,0.3,0.2,0.4,0.3c0.1-0.2,0.2-0.3,0.3-0.4c-0.1-0.1-0.2-0.2-0.4-0.3C10.7,11.1,10.7,11.2,10.5,11.3z M43.6,31.5
		c0,0.2-0.1,0.3-0.1,0.4c0.6,0.3,0.6,0.3,0.7-0.2C44,31.7,43.9,31.6,43.6,31.5z M42.6,35.3c-0.2-0.1-0.4-0.2-0.5-0.3
		c-0.4,0.5,0.1,0.5,0.3,0.7C42.4,35.6,42.5,35.5,42.6,35.3z M23.2,8.9c0.1,0,0.3,0,0.4,0c0-0.2,0-0.3,0-0.5
		C23.2,8.3,23,8.5,23.2,8.9z M14.3,8.3c0.2-0.1,0.3-0.2,0.4-0.3c-0.1-0.2-0.2-0.3-0.3-0.4c-0.2,0.1-0.3,0.2-0.4,0.3
		C14.1,8.1,14.2,8.2,14.3,8.3z M14.7,7.5C14.8,7.7,14.9,7.8,15,8c0.2-0.1,0.3-0.2,0.4-0.2c-0.1-0.2-0.2-0.3-0.3-0.4
		C15,7.4,14.9,7.4,14.7,7.5z M37.2,13.5c-0.2,0.1-0.3,0.2-0.4,0.4c0.1,0.1,0.2,0.2,0.3,0.4c0.1-0.1,0.3-0.2,0.4-0.3
		C37.4,13.7,37.3,13.6,37.2,13.5z M22.3,8.6c0,0.2,0,0.3,0.1,0.5c0.2,0,0.3-0.1,0.4-0.1C22.8,8.5,22.7,8.4,22.3,8.6z M38,14.5
		c-0.1-0.1-0.2-0.2-0.3-0.4c-0.1,0.1-0.2,0.2-0.4,0.3c0.1,0.1,0.2,0.2,0.3,0.3C37.7,14.7,37.8,14.6,38,14.5z"/>
	<path fill="#4F50B3" d="M40.4,25c0,8.5-6.9,15.3-15.4,15.3c-8.5,0-15.3-6.9-15.3-15.3c0-8.5,6.9-15.3,15.4-15.3
		C33.5,9.7,40.4,16.5,40.4,25z M10,25c0,8.3,6.7,14.9,15,15c8.2,0,14.9-6.7,15-14.9c0-8.3-6.7-15-14.9-15C16.7,10.1,10,16.7,10,25z"
		/>
	<path fill="#4F50B3" d="M19.8,5.4c0.2,0,0.4-0.1,0.5-0.1c0.2,0.7,0.4,1.4,0.5,2c0.1,0.4,0.2,0.5,0.6,0.4c1-0.2,1-0.2,0.9-1.2
		c0-0.1,0-0.1,0-0.2c0.2,0,0.3,0,0.5-0.1c0,0.2,0.1,0.4,0.1,0.6c0.1,0.5,0.3,0.7,0.8,0.6c0.3-0.1,0.5-0.1,0.9-0.2
		c0-0.3,0.1-0.6,0.1-1c0.2,0,0.3,0,0.5,0c0,0.2,0,0.5,0,0.7c0,0.2,0.2,0.3,0.3,0.5c0.1-0.1,0.2-0.3,0.3-0.4c0.1-0.2,0-0.4,0-0.6
		c0.2,0,0.4,0,0.6,0c0,0.3,0,0.5,0,0.7c0,0.2,0.2,0.3,0.3,0.4C26.9,7.3,27,7.1,27.1,7c0.1-0.3,0.1-0.6,0.1-0.9
		c0.2,0,0.4,0.1,0.5,0.1c0,0.3,0,0.5,0,0.7c0,0.3,0.1,0.5,0.4,0.5c0.2,0,0.5,0.1,0.7,0.2c0.3,0.1,0.5,0,0.6-0.3
		c0.2-0.7,0.4-1.3,0.6-2c0.2,0.1,0.4,0.1,0.6,0.2c-0.2,0.6-0.3,1.2-0.5,1.7c-0.2,0.6-0.1,0.7,0.5,0.9c0.8,0.3,0.7,0.4,1.1-0.5
		C31.8,7.1,32,6.6,32.2,6c0.2,0.1,0.3,0.1,0.6,0.2c-0.3,0.8-0.6,1.7-1,2.5c-0.1,0.3-0.5,0.4-0.7,0.2c-0.5-0.2-1.1-0.2-1.5-0.7
		c0,0-0.1,0-0.1,0c-0.7,0.1-1.3-0.3-1.9-0.3c-0.5,0-0.9,0-1.4-0.1c-0.4-0.1-0.8,0-1.3,0c-0.4,0-0.9,0.1-1.3,0.1
		c-0.5,0-0.9,0-1.4,0.2c-0.3,0.1-0.7,0.1-1,0.2c-0.5,0.1-0.7,0-0.8-0.5C20.2,7,20,6.2,19.8,5.4z"/>
	<path fill="#4F50B3" d="M35.2,11.1c-0.2,0.1-0.3,0.2-0.5,0.3c-0.5,0.2-0.9,0.2-1.3-0.2c-0.4-0.4-0.6-0.8-0.4-1.3
		c0.2-0.4,0.5-0.8,0.7-1.3c0.2,0.1,0.3,0.2,0.5,0.4c-0.2,0.3-0.4,0.5-0.5,0.8c-0.2,0.4-0.2,0.8,0.1,1c0.3,0.2,0.7,0.1,1-0.2
		c0.3-0.3,0.5-0.7,0.8-1.1c0.2,0.1,0.3,0.2,0.5,0.3c-0.2,0.2-0.3,0.4-0.4,0.6c-0.1,0.1,0,0.3,0.1,0.5c0.1-0.1,0.3-0.1,0.4-0.2
		c0.2-0.2,0.3-0.4,0.4-0.6c0.2,0.1,0.3,0.2,0.5,0.3c-0.1,0.2-0.3,0.4-0.4,0.6c-0.1,0.2,0,0.4,0.1,0.6c0.1-0.1,0.3-0.1,0.4-0.2
		c0.2-0.2,0.3-0.4,0.5-0.7c0.2,0.1,0.3,0.2,0.4,0.3c-0.1,0.5-1,0.9-0.1,1.5c-0.3,0.4,0.1,0.6,0.3,0.7c0.1,0.1,0.4-0.1,0.5-0.2
		c0.2-0.1,0.3-0.3,0.5-0.5c0.1,0.2,0.2,0.3,0.4,0.4c-0.3,0.3-0.6,0.6-0.9,0.8c-0.3,0.2-0.6,0.2-0.8,0c-0.2-0.2-0.6-0.4-0.4-0.8
		c-0.3-0.5-0.9-0.6-1.2-0.9C36.1,11.5,35.4,11.7,35.2,11.1z"/>
	<path fill="#4F50B3" d="M14.4,41.1c0.6-0.7,1.2-1.4,1.8-2.1c0.1,0.1,0.2,0.2,0.4,0.3c-0.9,0.9-1.8,1.9-2.6,2.8
		c-0.6-0.2-0.6-0.2-0.3-0.7c0.3-0.5,0.5-1,0.8-1.5c0,0-0.1-0.1-0.1-0.1c-0.5,0.5-1,1-1.5,1.6c-0.2-0.1-0.3-0.2-0.5-0.3
		c0.6-1.1,1.2-2.3,1.8-3.4c0.1,0.1,0.3,0.2,0.4,0.3c-0.4,0.8-0.9,1.6-1.3,2.4c0,0,0.1,0,0.1,0.1c0.6-0.6,1.1-1.2,1.7-1.8
		c0.2-0.2,0.3-0.2,0.5,0C15.1,39.4,14.7,40.3,14.4,41.1C14.3,41.1,14.4,41.1,14.4,41.1z"/>
	<path fill="#4F50B3" d="M34.6,38.6c0.1-0.1,0.2-0.1,0.2-0.2c0.2-0.3,0.5-0.3,0.7,0c0.5,0.4,0.9,0.8,1.4,1.2c0,0,0.1,0,0.1-0.1
		c-0.4-0.6-0.8-1.3-1.2-2c0.2-0.2,0.4-0.3,0.6-0.5c0.8,1,1.7,1.9,2.5,2.9c-0.1,0.1-0.2,0.2-0.3,0.3c-0.7-0.8-1.3-1.5-1.9-2.2
		c0,0-0.1,0-0.1,0.1c0.2,0.3,0.4,0.7,0.6,1c0.3,0.4,0.5,0.9,0.8,1.3c0.1,0.1,0,0.2,0.1,0.4c-0.1,0-0.3-0.1-0.4-0.1
		c-0.7-0.6-1.4-1.1-2.1-1.7c0,0-0.1,0-0.1,0.1c0.6,0.7,1.3,1.5,2,2.3c-0.1,0.1-0.2,0.2-0.4,0.3C36.3,40.5,35.4,39.6,34.6,38.6z"/>
	<path fill="#4F50B3" d="M19.9,8.5c-0.5,0.2-1,0.4-1.5,0.6c-0.5,0.2-0.9,0.4-1.4,0.7c-0.3,0.2-0.6,0.3-0.9,0.1
		c-0.1-0.1-0.3,0-0.4,0.1c-0.5,0.2-0.9,0.1-1.1-0.5c-0.2-0.5-0.1-0.8,0.4-1c0.2-0.1,0.4-0.3,0.7-0.4c0.2,0.4,0.4,0.7,0.6,1.1
		c0.1,0.2,0.2,0.3,0.5,0.2c0.7-0.3,1.4-0.6,2.1-1c0,0,0.1-0.1,0.1-0.1c-0.4-0.5-0.8-0.5-1.4,0c-0.1-0.1-0.2-0.2-0.3-0.3
		c0.3-0.5,0.7-0.8,1.2-0.7C19.2,7.4,19.5,7.9,19.9,8.5z M15.8,9.3c-0.2-0.2-0.3-0.3-0.4-0.4c0,0-0.3,0.2-0.3,0.2
		c0,0.1,0.1,0.3,0.3,0.4C15.4,9.5,15.6,9.4,15.8,9.3z"/>
	<path fill="#4F50B3" d="M44,17.9c0.1,0.2,0.1,0.3,0.2,0.5c-0.8,0.3-1.6,0.7-2.4,1c-0.3,0.1-0.6-0.1-0.7-0.4
		c-0.2-0.4-0.3-0.9-0.5-1.3c-0.6,0.1-1.1,0-1.4-0.5c-0.1-0.1,0-0.4,0-0.7c0.2,0.2,0.3,0.3,0.4,0.3c0.4,0.2,0.7,0.3,1.1,0.1
		c0.4-0.2,0.7-0.4,1.1-0.6c0.1,0.2,0.2,0.3,0.3,0.5c-0.2,0.1-0.4,0.3-0.7,0.4c-0.3,0.2-0.4,0.4-0.2,0.7c0.1,0.1,0.1,0.3,0.2,0.5
		c0.2,0.5,0.3,0.5,0.7,0.3C42.8,18.4,43.4,18.1,44,17.9z"/>
	<path fill="#4F50B3" d="M8.3,36.7c1-0.8,2-1.6,3-2.4c0.3,0.3,0.5,0.6,0.7,0.9c0.1,0.2,0.1,0.5,0,0.7c-0.3,0.4-0.7,0.7-1,0.7
		c-0.5,0.6-1,1-1.4,1.5c-0.4-0.4-0.4-0.4,0-0.7c0.2-0.2,0.4-0.3,0.6-0.5c0.2-0.2,0.2-0.4,0.1-0.6C10,36.1,9.9,36,9.7,36.2
		c-0.3,0.3-0.7,0.5-1.1,0.8C8.5,36.9,8.4,36.8,8.3,36.7z M10.3,35.7c0.3,0.6,0.8,0.6,1.1,0.1c0.1-0.1,0-0.4-0.1-0.6
		c0,0-0.3,0-0.4,0.1C10.7,35.4,10.5,35.5,10.3,35.7z"/>
	<path fill="#4F50B3" d="M30.7,42.9c0.2,0.5,0.3,1,0.5,1.5c-0.1,0.1-0.3,0.1-0.4,0.2c-0.4-1.2-0.8-2.4-1.2-3.7
		c0.6-0.1,1.1-0.6,1.6-0.2c0.4,0.2,0.5,1,0.3,1.5c0.7,0.4,0.6,1.2,1,1.7c-0.2,0.1-0.3,0.1-0.5,0.2c-0.1-0.4-0.3-0.7-0.4-1
		C31.4,42.6,31.2,42.6,30.7,42.9z"/>
	<path fill="#4F50B3" d="M30.5,42.3c0.7-0.1,0.9-0.6,0.4-1c-0.1-0.1-0.4-0.1-0.6-0.1c-0.1,0-0.2,0.2-0.2,0.2
		C30.3,41.7,30.4,42,30.5,42.3z"/>
	<path fill="#4F50B3" d="M25,43.4c0.1-0.5,0.1-0.9,0.1-1.3c0.1-0.4,0.3-0.6,0.8-0.7c0.4,0,0.7,0.2,0.8,0.6c0.2,0.9,0.3,1.9,0.1,2.8
		c-0.1,0.4-0.3,0.6-0.7,0.6c-0.4,0-0.7-0.1-0.8-0.5C25.1,44.4,25.1,43.8,25,43.4z M25.6,43.3C25.5,43.3,25.5,43.3,25.6,43.3
		c0,0.4,0,0.7,0,1.1c0,0.2,0.1,0.5,0.4,0.5c0.3,0,0.4-0.3,0.4-0.5c0-0.7,0-1.3-0.1-2c0-0.2-0.2-0.3-0.4-0.4
		c-0.1,0.1-0.3,0.3-0.4,0.4C25.5,42.7,25.6,43,25.6,43.3z"/>
	<path fill="#4F50B3" d="M12.7,36.1c0.1,0.1,0.2,0.2,0.3,0.3c-0.3,0.4-0.6,0.7-0.9,1c-0.3,0.4-0.7,0.7-1,1.1
		c-0.2,0.2-0.3,0.4-0.1,0.6c0.2,0.2,0.5,0.1,0.6-0.1c0.5-0.5,1.1-1.1,1.6-1.6c0.1-0.1,0.2-0.3,0.4-0.4c0.2,0.1,0.3,0.2,0.4,0.4
		c-0.8,0.8-1.5,1.5-2.2,2.3c-0.3,0.3-0.8,0.3-1.1,0c-0.4-0.3-0.5-0.7-0.2-1.1c0.5-0.6,1-1.1,1.5-1.7C12.2,36.6,12.4,36.4,12.7,36.1z
		"/>
	<path fill="#4F50B3" d="M29.1,41.1c0.2,1,0.4,2.1,0.5,3.1c0.1,0.4-0.2,0.8-0.6,0.9c-0.5,0.1-0.9,0-1-0.4c-0.3-1.1-0.5-2.2-0.7-3.3
		c0.4-0.2,0.5-0.1,0.6,0.2c0.1,0.7,0.3,1.5,0.4,2.2c0,0.1,0,0.3,0.1,0.4c0.1,0.1,0.3,0.2,0.4,0.3c0.1-0.2,0.3-0.3,0.3-0.5
		c0-0.5-0.1-1.1-0.2-1.6c-0.1-0.3-0.1-0.7-0.2-1C28.5,41.2,28.7,41.1,29.1,41.1z"/>
	<path fill="#4F50B3" d="M9.2,21.5c0,0.1-0.1,0.3-0.2,0.5c-0.6-0.2-1.2-0.3-1.7-0.5C7,21.4,6.9,21.1,7,20.8c0.1-0.3,0.1-0.5-0.1-0.7
		c-0.3-0.4-0.1-1.1,0.4-1.3c0.5-0.2,1.1,0,1.3,0.5c0.2,0.5-0.1,1.1-0.6,1.2c-0.1,0.1-0.3,0.2-0.4,0.3C7.7,20.9,7.8,21,8,21.1
		C8.4,21.2,8.8,21.3,9.2,21.5C9.2,21.5,9.2,21.5,9.2,21.5z M7.8,20.1c0.2-0.2,0.3-0.3,0.4-0.4c-0.2-0.1-0.3-0.3-0.5-0.4
		c-0.1,0-0.2,0.2-0.4,0.3C7.4,19.7,7.6,19.8,7.8,20.1z"/>
	<path fill="#4F50B3" d="M19.3,43.9C19.3,43.9,19.3,43.9,19.3,43.9c0.1-0.3-0.1-0.6,0.3-0.6c0.4,0,0.1,0.3,0.2,0.5
		c0,0.2,0.2,0.3,0.2,0.5c0.1-0.1,0.4-0.2,0.4-0.3c0.1-0.2,0-0.4-0.1-0.6c-0.1-0.3-0.3-0.5-0.4-0.7c-0.3-0.5-0.2-1,0.1-1.5
		c0.3-0.3,0.7-0.4,1.1-0.1c0.3,0.2,0.4,0.9,0.2,1.1c0,0.1-0.1,0.1-0.2,0.1c-0.1,0-0.2-0.1-0.2-0.2c0,0,0-0.1,0-0.2
		c0-0.2-0.1-0.5-0.3-0.4c-0.1,0-0.3,0.4-0.3,0.5c0.1,0.3,0.3,0.6,0.4,0.8c0.4,0.5,0.4,1,0.2,1.5c-0.2,0.5-0.5,0.7-0.9,0.6
		C19.5,44.7,19.3,44.5,19.3,43.9z"/>
	<path fill="#4F50B3" d="M5.5,31.1c1.3-0.3,2.5-0.5,3.8-0.8c0.1,0.2,0.2,0.4,0.3,0.6c-1.1,0.7-2.2,1.3-3.3,2
		c-0.1-0.2-0.1-0.3-0.2-0.5c0.2-0.1,0.4-0.2,0.5-0.3c0.2-0.1,0.3-0.2,0.2-0.5c-0.1-0.3-0.2-0.3-0.5-0.2C5.6,31.6,5.6,31.6,5.5,31.1z
		 M8.6,31C8.6,30.9,8.6,30.9,8.6,31c-0.5,0-1,0.1-1.5,0.3c0.1,0.2,0.1,0.3,0.2,0.5C7.8,31.4,8.2,31.2,8.6,31z"/>
	<path fill="#4F50B3" d="M16.8,43.7c-0.4-0.1-0.5-0.3-0.4-0.6c0.2-0.6,0.2-0.6-0.3-0.8c-0.4,0.1-0.3,0.9-1.1,0.5
		c0.8-1,1.5-2.1,2.3-3.1c0.2,0.1,0.4,0.2,0.6,0.3C17.6,41.2,17.2,42.5,16.8,43.7z M17.3,40.6C17.3,40.6,17.3,40.6,17.3,40.6
		c-0.4,0.3-0.6,0.7-1,1.1c0.2,0.1,0.3,0.2,0.5,0.2C17,41.5,17.2,41.1,17.3,40.6z"/>
	<path fill="#4F50B3" d="M10.3,18.2c-0.5-0.3-1-0.5-1.4-0.8c-0.4-0.2-0.5-0.5-0.2-0.9c0.1-0.2,0.2-0.4,0.1-0.7
		c-0.2-0.4,0.2-1.1,0.6-1.2c0.5-0.1,1.1,0.3,1.2,0.8c0.1,0.5-0.3,1-0.8,1c-0.1,0-0.1,0-0.2,0c-0.1,0.1-0.3,0.1-0.3,0.3
		c0,0.1,0.1,0.3,0.2,0.3c0.4,0.2,0.8,0.4,1.2,0.7C10.5,17.9,10.4,18,10.3,18.2z M9.6,16c0.2-0.2,0.3-0.3,0.4-0.4
		c-0.1-0.2-0.3-0.3-0.5-0.5c-0.1,0-0.2,0.1-0.4,0.2C9.3,15.6,9.4,15.7,9.6,16z"/>
	<path fill="#4F50B3" d="M34.1,41.8c0.2-0.1,0.3-0.2,0.4-0.2c0.1,0.1,0.2,0.3,0.3,0.4c0.1,0.1,0.3,0.1,0.5,0.1
		c0-0.2,0.2-0.4,0.1-0.5c-0.1-0.2-0.3-0.3-0.5-0.4c-0.3-0.1-0.5-0.1-0.8-0.2c-0.5-0.1-0.8-0.5-0.9-1c-0.1-0.4,0-0.7,0.3-0.9
		c0.3-0.2,0.7-0.2,1,0.1c0.1,0.1,0.2,0.3,0.4,0.5c-0.1,0.1-0.3,0.2-0.4,0.2c-0.1-0.1-0.2-0.3-0.3-0.3c-0.1-0.1-0.3-0.1-0.4,0
		c-0.1,0.1-0.1,0.3-0.1,0.4c0.1,0.2,0.3,0.3,0.4,0.4c0.2,0.1,0.5,0.1,0.7,0.2c0.6,0.1,0.9,0.6,1.1,1.1c0.1,0.4,0,0.8-0.4,1
		c-0.4,0.2-0.7,0.1-1-0.2C34.4,42.2,34.3,42,34.1,41.8z"/>
	<path fill="#4F50B3" d="M43.6,29.3c0-0.1,0-0.2,0.1-0.4c0.7-0.1,1.3,0.4,1.2,0.9c0,0.4-0.3,0.7-0.7,0.7c-1,0-2-0.2-2.9-0.6
		C41,29.8,40.9,29.4,41,29c0.1-0.4,0.4-0.6,0.8-0.6c0.2,0,0.4,0,0.6,0.1c0,0.2-0.1,0.3-0.1,0.4c-0.2,0-0.3,0-0.5,0
		c-0.1,0-0.3,0.1-0.3,0.2c0,0.1,0.1,0.3,0.2,0.3c0.8,0.2,1.6,0.4,2.4,0.5c0.1,0,0.3-0.1,0.3-0.2c0-0.1-0.1-0.3-0.2-0.3
		C44,29.4,43.8,29.3,43.6,29.3z"/>
	<path fill="#4F50B3" d="M38.3,15.2c0.3,0.1,0.6,0.3,1,0.5c-0.1-0.2-0.1-0.3-0.1-0.4c-0.2-0.4-0.1-0.7,0.2-1c0.3-0.3,0.6-0.4,1-0.2
		c0.4,0.2,0.6,0.5,0.6,0.9c0,0.1,0,0.3-0.1,0.4c-0.3,0.5-1.3,0.9-1.9,0.8C38.3,16,38.1,15.7,38.3,15.2z"/>
	<path fill="#4F50B3" d="M39.9,15.3c0.1-0.2,0.6-0.2,0.4-0.7c0-0.1-0.4-0.1-0.5,0C39.5,14.9,39.7,15.1,39.9,15.3z"/>
	<path fill="#4F50B3" d="M22.8,42c0-0.2,0-0.4,0.1-0.6c0.6,0,1.1,0.1,1.7,0.1c0,0.2,0,0.3,0,0.5c-0.1,0-0.2,0-0.2,0
		c-0.3-0.1-0.4,0.1-0.4,0.4c0,0.8-0.1,1.6-0.2,2.4c0,0.2,0,0.4-0.3,0.4c-0.3,0-0.2-0.2-0.2-0.4c0.1-0.8,0.1-1.7,0.2-2.5
		C23.4,41.9,23.1,42,22.8,42z"/>
	<path fill="#4F50B3" d="M6.6,33.8c1.1-0.6,2.2-1.2,3.4-1.8c0.1,0.1,0.2,0.3,0.3,0.4c-1,0.5-1.9,1-2.8,1.5c0.1,0.3,0.3,0.6,0.4,0.9
		c-0.2,0.1-0.3,0.2-0.5,0.3C7,34.6,6.8,34.2,6.6,33.8z"/>
	<path fill="#4F50B3" d="M42,24.7c0.3,0,0.7,0,0.9-0.2c0.2-0.1,0.2-0.5,0.4-0.9c0.1,0.8,0.4,1.3,1.2,1.1c-0.2,0.2-0.6,0.4-0.6,0.6
		c-0.1,0.2,0.1,0.6,0.2,0.9c-0.3-0.2-0.6-0.5-0.8-0.5c-0.3,0-0.5,0.3-0.9,0.5C42.8,25.6,42.8,25.1,42,24.7z"/>
	<path fill="#4F50B3" d="M40.8,37c0.2-0.3,0.4-0.5,0.6-0.8c0.2,0.1,0.3,0.2,0.5,0.3c-0.3,0.4-0.5,0.8-0.8,1.2
		c-1-0.7-2.1-1.5-3.1-2.2c0.1-0.1,0.1-0.2,0.2-0.4C39,35.7,39.9,36.3,40.8,37z"/>
	<path fill="#4F50B3" d="M5.8,26.3c0.3-0.7,0.3-1.3-0.5-1.6c0.9,0.2,1.3-0.2,1.4-1c0.1,0.8,0.5,1.2,1.3,0.9c0,0,0,0.1,0,0.1
		c-0.2,0.2-0.6,0.4-0.6,0.6c-0.1,0.3,0.1,0.6,0.2,1C6.9,25.7,6.4,25.7,5.8,26.3z"/>
	<path fill="#4F50B3" d="M43.2,32.8c0.2,0.1,0.3,0.2,0.5,0.2c-0.2,0.4-0.4,0.9-0.6,1.3c-1.2-0.5-2.3-1-3.5-1.6
		c0.1-0.2,0.1-0.3,0.2-0.4c1,0.4,1.9,0.9,2.9,1.3C42.9,33.4,43.1,33.1,43.2,32.8z"/>
	<path fill="#4F50B3" d="M11.9,13.9c-0.5-0.8,0.4-1,0.6-1.6c-0.2,0-0.5-0.1-0.6-0.1c-0.3,0.1-0.5,0-0.6-0.3c0.6-0.6,1.4-0.4,2.1,0.4
		C12.9,12.8,12.4,13.3,11.9,13.9z"/>
	<path fill="#4F50B3" d="M31.8,40.1c0.2-0.1,0.3-0.1,0.4-0.2c0.5,1.2,1,2.3,1.6,3.5c-0.1,0.1-0.3,0.1-0.4,0.2
		C32.9,42.4,32.3,41.3,31.8,40.1z"/>
	<path fill="#4F50B3" d="M19.1,40.5c0.2,0.1,0.3,0.1,0.5,0.1c-0.5,1.2-0.9,2.4-1.4,3.6c-0.2-0.1-0.3-0.1-0.5-0.2
		C18.1,42.8,18.6,41.7,19.1,40.5z"/>
	<path fill="#4F50B3" d="M41.5,20.3c1-0.3,2-0.6,3-0.9c0.1,0.2,0.1,0.3,0.2,0.6c-1,0.3-2,0.6-3,0.9C41.6,20.6,41.6,20.5,41.5,20.3z"
		/>
	<path fill="#4F50B3" d="M10.5,11.3c0.1-0.1,0.2-0.2,0.3-0.4c0.1,0.1,0.2,0.2,0.4,0.3c-0.1,0.1-0.2,0.2-0.3,0.4
		C10.8,11.6,10.7,11.5,10.5,11.3z"/>
	<path fill="#4F50B3" d="M43.6,31.5c0.2,0.1,0.4,0.1,0.6,0.2c-0.1,0.4-0.1,0.4-0.7,0.2C43.6,31.8,43.6,31.7,43.6,31.5z"/>
	<path fill="#4F50B3" d="M42.6,35.3c-0.1,0.1-0.1,0.2-0.2,0.4c-0.2-0.2-0.7-0.2-0.3-0.7C42.2,35.1,42.4,35.2,42.6,35.3z"/>
	<path fill="#4F50B3" d="M23.2,8.9c-0.2-0.4,0-0.6,0.4-0.5c0,0.1,0,0.3,0,0.5C23.5,8.9,23.3,8.9,23.2,8.9z"/>
	<path fill="#4F50B3" d="M14.3,8.3c-0.1-0.2-0.2-0.3-0.2-0.4c0.1-0.1,0.2-0.2,0.4-0.3c0.1,0.1,0.2,0.3,0.3,0.4
		C14.6,8.2,14.4,8.2,14.3,8.3z"/>
	<path fill="#4F50B3" d="M14.7,7.5c0.2-0.1,0.3-0.1,0.4-0.2c0.1,0.1,0.2,0.3,0.3,0.4C15.3,7.8,15.2,7.9,15,8
		C14.9,7.8,14.8,7.7,14.7,7.5z"/>
	<path fill="#4F50B3" d="M37.2,13.5c0.1,0.1,0.2,0.2,0.3,0.4c-0.1,0.1-0.3,0.2-0.4,0.3c-0.1-0.1-0.2-0.2-0.3-0.4
		C36.9,13.7,37,13.6,37.2,13.5z"/>
	<path fill="#4F50B3" d="M22.3,8.6c0.4-0.2,0.5,0,0.5,0.4C22.7,9,22.5,9,22.4,9C22.4,8.8,22.3,8.7,22.3,8.6z"/>
	<path fill="#4F50B3" d="M38,14.5c-0.2,0.1-0.3,0.2-0.4,0.3c-0.1-0.1-0.2-0.2-0.3-0.3c0.1-0.1,0.2-0.2,0.4-0.3
		C37.8,14.2,37.9,14.3,38,14.5z"/>
	<path fill="#FFFFFF" d="M10,25c0-8.3,6.7-14.9,15-14.9c8.3,0,15,6.7,14.9,15c0,8.2-6.7,14.9-15,14.9C16.7,39.9,10,33.3,10,25z"/>
	<path fill="#FFFFFF" d="M24.6,20.7c0,0-0.1,0-0.1-0.1c-0.2,0.3-0.4,0.6-0.5,0.9c-0.2,0.5,0,0.9,0.4,1.1c0.7,0.3,1.7-0.1,2.1-0.7
		c0.1-0.1,0.3-0.3,0.5-0.3c0.4-0.1,0.9,0.1,1.3-0.2c0,0,0.1,0,0.1,0.1c0.2,0,0.4,0.1,0.6,0.1c1,0,2,0,3,0c0.5,0,0.6-0.3,0.7-0.6
		c0.1-0.3,0-0.5-0.2-0.7c-0.2-0.3-0.5-0.3-0.8-0.1c-0.3,0.2-0.5,0.3-0.8,0.5c-0.1,0.1-0.2,0.1-0.4,0.2c0.1-0.6,0.2-1.1,0.3-1.7
		c-0.1-0.1-0.3-0.3-0.6-0.5c0,0.3-0.1,0.5-0.1,0.6c0.1,0.5,0.2,0.9,0.3,1.4c0.1,0.3-0.1,0.4-0.4,0.4c-0.3,0-0.6,0-0.8,0
		c-0.3,0-0.5-0.1-0.4-0.5c0-0.1,0-0.2,0-0.4c0,0-0.1,0-0.1,0c-0.1,0.2-0.2,0.4-0.2,0.6c0,0.3-0.2,0.3-0.4,0.3c-0.6,0-1.2,0-1.9,0
		c-0.4,0-0.6,0.2-0.7,0.5c0.3,0.1,0.6,0.2,0.8,0.3c0,0.1,0,0.1,0,0.2c-0.4,0-0.8,0.1-1.2,0.1c-0.6-0.1-0.8-0.5-0.5-1.1
		C24.5,20.9,24.5,20.8,24.6,20.7z"/>
	<path fill="#FFFFFF" d="M28.1,28.5c0-0.3,0-0.5,0-0.8c0-0.9-0.1-0.8,0.8-0.8c0.3,0,0.4,0.1,0.4,0.4c0,0.4,0,0.8,0,1.1
		c0.6,0.1,0.6,0.1,0.6-0.4c0-0.7,0-1.5,0-2.2c0-0.2,0-0.3,0-0.5c-0.2,0-0.4,0-0.6,0c0,0.2,0,0.3,0,0.5c0,0.9,0,0.9-0.9,0.9
		c-0.2,0-0.3-0.1-0.3-0.3c0-0.3,0-0.6,0-1c-0.2,0-0.4,0-0.6,0c0,1.1,0,2.1,0,3.2C27.7,28.5,27.8,28.5,28.1,28.5z"/>
	<path fill="#FFFFFF" d="M24.1,28.6c0.5,0,0.9,0,1.3,0c0.7-0.1,1.1-0.4,1.2-1.1c0.1-0.7,0.1-1.4-0.5-1.9c-0.1-0.1-0.2-0.1-0.3-0.1
		c-0.6,0-1.2-0.1-1.7-0.1C24.1,26.4,24.1,27.5,24.1,28.6z"/>
	<path fill="#FFFFFF" d="M33.6,25.3c0,1.1,0,2.2,0,3.2c0.4,0,0.7,0,1.1,0c0.4,0,0.6-0.2,0.7-0.6c0.1-0.5-0.1-0.9-0.5-1.1
		c0.1-0.1,0.1-0.1,0.1-0.1c0.3-0.2,0.5-0.5,0.3-0.9c-0.1-0.4-0.5-0.5-0.8-0.5C34.2,25.3,33.9,25.3,33.6,25.3z"/>
	<path fill="#FFFFFF" d="M18.2,26.8c0.1-0.1,0.1-0.1,0.2-0.1c0.4-0.2,0.4-0.6,0.3-0.9c-0.1-0.4-0.4-0.4-0.7-0.5c-0.3,0-0.7,0-1,0
		c0,1.1,0,2.2,0,3.2c0.4,0,0.8,0,1.1,0c0.4,0,0.7-0.3,0.7-0.7C18.8,27.4,18.7,27,18.2,26.8z"/>
	<path fill="#FFFFFF" d="M32.5,22.1c0.8,0.6,1.3,0.6,1.6,0c0.3-0.6,0.7-0.7,1.3-0.7c0.1,0,0.2,0,0.3,0c0.1,0,0.2-0.1,0.2-0.2
		c0.2-0.5,0.2-1-0.2-1.5c-0.6,0.3,0,0.7,0,1.1c-0.2,0-0.4,0-0.6,0c-0.4,0-0.6-0.1-0.6-0.5c0-0.1-0.1-0.2-0.1-0.3
		c-0.2-0.4-0.5-0.4-0.7-0.1c-0.1,0.2-0.2,0.5-0.3,0.7c-0.1,0.3,0,0.5,0.4,0.6c0.1,0,0.3,0.1,0.4,0.1C33.7,22.1,33.2,22.4,32.5,22.1z
		"/>
	<path fill="#FFFFFF" d="M22,25.4C21.9,25.3,21.9,25.3,22,25.4c-0.2,0-0.3,0.1-0.3,0.2c0,0.4,0,0.8,0,1.1c0,0.3,0,0.7-0.1,1
		c-0.1,0.4-0.4,0.6-0.8,0.6c-0.4,0-0.6-0.3-0.6-0.7c0-0.3,0-0.6,0-0.8c0-0.5,0-1,0-1.5c-0.2,0-0.4,0-0.6,0c0,0.1,0,0.1,0,0.2
		c0,0.7,0,1.3,0.1,2c0,0.7,0.4,1.1,1.2,1.1c0.7,0,1.1-0.4,1.2-1.1C22,26.8,22,26.1,22,25.4z"/>
	<path fill="#FFFFFF" d="M19.5,30.6c0,0.9,0.1,1.7,0.1,2.6c0,0.2,0.2,0.4,0.3,0.5c0.4,0.3,0.9,0.3,1.4,0.1c0.4-0.2,0.5-0.6,0.5-1
		c0-0.6,0-1.2,0-1.8c0-0.1-0.1-0.2-0.1-0.3c-0.1,0.1-0.1,0.2-0.2,0.3c0,0.1,0,0.2,0,0.3c0,0.5,0,1.1,0,1.6c0,0.5-0.3,0.8-0.8,0.8
		c-0.4,0-0.7-0.3-0.7-0.8c0-0.6,0-1.2,0-1.7C20.1,30.5,20.1,30.5,19.5,30.6z"/>
	<path fill="#FFFFFF" d="M33,28.5c-0.3-1-0.7-2-1-3.1c0-0.1-0.1-0.2-0.2-0.2c-0.1,0-0.1,0.1-0.2,0.2c-0.2,0.6-0.4,1.3-0.7,2
		c-0.1,0.4-0.2,0.7-0.4,1.1c0,0,0.1,0.1,0.1,0.1c0.1-0.1,0.2-0.2,0.3-0.3c0.1-0.2,0.1-0.5,0.3-0.6c0.4-0.2,0.8,0,1,0.5
		C32.3,28.6,32.4,28.6,33,28.5z"/>
	<path fill="#FFFFFF" d="M16.3,28.5c-0.4-1-0.7-2.1-1.1-3.1c-0.1-0.2-0.3-0.2-0.4,0c-0.4,1-0.7,2.1-1,3.2c0.4,0,0.4-0.3,0.5-0.5
		c0.1-0.3,0.2-0.5,0.5-0.4c0.3,0,0.7-0.1,0.7,0.4C15.5,28.5,15.8,28.7,16.3,28.5z"/>
	<path fill="#FFFFFF" d="M23.9,33.7c0.4,0.1,0.4-0.2,0.4-0.4c0.1-0.3,0.2-0.6,0.6-0.6c0.4,0,0.6,0.2,0.6,0.5
		c0.1,0.5,0.2,0.5,0.7,0.4c0,0,0-0.1,0-0.1c-0.3-1-0.7-2-1-3c0-0.1-0.2-0.2-0.2-0.2c-0.1,0.1-0.2,0.1-0.2,0.2
		C24.5,31.7,24.2,32.7,23.9,33.7z"/>
	<path fill="#FFFFFF" d="M19.6,23c-0.3,0-0.5,0-0.7,0c-0.2,0-0.5,0-0.7-0.1c-0.7-0.2-0.9-0.7-0.4-1.3c0.2-0.3,0.6-0.4,0.9-0.6
		c0.1-0.1,0.2-0.3,0.4-0.4c0,0-0.1-0.1-0.1-0.1c-0.1,0-0.2,0-0.2,0.1c-0.2,0.1-0.4,0.2-0.6,0.2c-0.2,0-0.3-0.2-0.5-0.4
		c0.1-0.1,0.3-0.2,0.4-0.3c0.2-0.1,0.4,0,0.6,0c-0.4-0.5-0.6-0.5-0.9-0.3c-0.6,0.5-0.6,1-0.1,1.6c-0.1,0.3-0.3,0.5-0.3,0.8
		c-0.1,0.4-0.2,0.8,0.2,1.1C18,23.6,19.2,23.5,19.6,23z"/>
	<path fill="#FFFFFF" d="M36.9,28.5c0-1.1,0-2.1,0-3.2c-0.2,0-0.4,0-0.6,0c0,1.1,0,2.1,0,3.2C36.5,28.5,36.7,28.5,36.9,28.5z"/>
	<path fill="#FFFFFF" d="M15.1,20.4c0,0.1,0,0.1,0,0.2c-0.2,0.1-0.4,0.1-0.5,0.2c-0.2,0.2-0.4,0.4-0.4,0.7c0,0.5,0.1,1,0.2,1.5
		c0,0,0.1,0,0.1,0c0-0.4,0-0.8,0-1.3c-0.1-0.4,0.1-0.6,0.4-0.6c0.3,0,0.6,0,0.8,0.1c0.2-0.5,0.2-0.7-0.4-1.2
		c-0.3-0.2-0.5-0.2-0.7,0.1c-0.1,0.1-0.1,0.3-0.2,0.4C14.6,20.4,14.8,20.4,15.1,20.4z"/>
	<path fill="#FFFFFF" d="M21.9,21c0.5,0,0.9,0,1.4,0c0.2,0,0.3-0.1,0.3-0.3c0-0.2-0.1-0.3-0.3-0.3c-0.3,0-0.6,0-1,0
		C21.8,20.4,21.8,20.5,21.9,21z"/>
	<path fill="#FFFFFF" d="M20.5,21.7c0.5-0.8,0.2-1.7,0.1-2.6c-0.1,0.3-0.3,0.5-0.2,0.8C20.3,20.5,20.4,21.1,20.5,21.7z"/>
	<path fill="#FFFFFF" d="M36.8,18.9c-0.6,0.8,0,1.7,0,2.6C37.1,20.6,36.9,19.7,36.8,18.9z"/>
	<path fill="#FFFFFF" d="M23.7,33.5C23.4,33.2,23.2,33,23,33c-0.3-0.1-0.5,0.2-0.5,0.5c0,0.3,0.1,0.6,0.4,0.5
		C23.2,33.9,23.4,33.7,23.7,33.5z"/>
	<path fill="#FFFFFF" d="M31.4,33.6c-0.1-0.4-0.2-0.6-0.5-0.6c-0.3,0-0.4,0.2-0.4,0.5c0,0.3,0.1,0.5,0.4,0.5
		C31.1,33.9,31.3,33.7,31.4,33.6z"/>
	<path fill="#FFFFFF" d="M27.8,33.4c-0.3-0.2-0.4-0.5-0.6-0.5c-0.3,0-0.4,0.2-0.4,0.5c0,0.3,0.1,0.6,0.5,0.5
		C27.4,33.9,27.6,33.7,27.8,33.4z"/>
	<path fill="#FFFFFF" d="M27.1,22.4c0.4,0.5,0.6,0.5,1,0C27.7,21.8,27.5,21.8,27.1,22.4z"/>
	<path fill="#FFFFFF" d="M24.2,23.2c0.1,0.1,0.3,0.2,0.4,0.3c0,0,0-0.1,0-0.1c0.2,0,0.4-0.1,0.5,0c0.3,0.2,0.4,0,0.5-0.2
		C25.5,23,25.3,22.8,25,23c0,0-0.2,0-0.3,0C24.5,22.8,24.4,22.9,24.2,23.2z"/>
	<path fill="#FFFFFF" d="M35.8,22.5c-0.4-0.5-0.6-0.5-0.9,0C35.3,22.9,35.4,22.9,35.8,22.5z"/>
	<path fill="#FFFFFF" d="M31,19.2c0.4,0.5,0.5,0.5,0.8,0c-0.1-0.1-0.3-0.2-0.4-0.4C31.3,18.9,31.2,19.1,31,19.2z"/>
	<path fill="#FFFFFF" d="M16.9,21.2c-0.3-0.4-0.4-0.4-0.6,0C16.5,21.4,16.7,21.5,16.9,21.2z"/>
	<path fill="#FFFFFF" d="M20,21.2c-0.2-0.1-0.3-0.3-0.4-0.3c-0.1,0-0.2,0.2-0.3,0.3c0,0.1,0.2,0.2,0.3,0.3
		C19.7,21.4,19.8,21.3,20,21.2z"/>
	<path fill="#FFFFFF" d="M13.4,20.8c-0.1,0.2-0.3,0.3-0.2,0.4c0,0.1,0.2,0.2,0.3,0.3c0.1,0,0.3-0.2,0.3-0.3
		C13.7,21,13.5,20.9,13.4,20.8z"/>
	<path fill="#FFFFFF" d="M15.8,9.3c-0.2,0.1-0.3,0.2-0.4,0.2c-0.1-0.1-0.2-0.2-0.3-0.4c0-0.1,0.2-0.3,0.3-0.2
		C15.5,9,15.6,9.1,15.8,9.3z"/>
	<path fill="#FFFFFF" d="M10.3,35.7c0.2-0.2,0.4-0.3,0.6-0.4c0.1-0.1,0.4-0.1,0.4-0.1c0.1,0.2,0.2,0.4,0.1,0.6
		C11.1,36.3,10.7,36.3,10.3,35.7z"/>
	<path fill="#FFFFFF" d="M30.5,42.3c-0.1-0.3-0.2-0.6-0.3-0.9c0-0.1,0.1-0.2,0.2-0.2c0.2,0,0.4,0,0.6,0.1
		C31.4,41.7,31.2,42.2,30.5,42.3z"/>
	<path fill="#FFFFFF" d="M25.6,43.3c0-0.3,0-0.6,0-0.9c0-0.2,0.2-0.3,0.4-0.4c0.1,0.1,0.4,0.3,0.4,0.4c0.1,0.7,0.1,1.3,0.1,2
		c0,0.2-0.1,0.5-0.4,0.5c-0.3,0-0.4-0.3-0.4-0.5C25.6,44.1,25.5,43.7,25.6,43.3C25.5,43.3,25.5,43.3,25.6,43.3z"/>
	<path fill="#FFFFFF" d="M7.8,20.1c-0.2-0.2-0.3-0.4-0.5-0.5c0.1-0.1,0.3-0.3,0.4-0.3c0.2,0.1,0.3,0.2,0.5,0.4
		C8,19.7,7.9,19.9,7.8,20.1z"/>
	<path fill="#FFFFFF" d="M8.6,31c-0.4,0.2-0.8,0.5-1.3,0.7c-0.1-0.2-0.1-0.3-0.2-0.5C7.7,31.1,8.1,31,8.6,31
		C8.6,30.9,8.6,30.9,8.6,31z"/>
	<path fill="#FFFFFF" d="M17.3,40.6c-0.2,0.4-0.3,0.9-0.5,1.4c-0.2-0.1-0.3-0.1-0.5-0.2C16.7,41.4,17,41,17.3,40.6
		C17.3,40.6,17.3,40.6,17.3,40.6z"/>
	<path fill="#FFFFFF" d="M9.6,16c-0.2-0.3-0.3-0.4-0.4-0.6c0.1-0.1,0.3-0.3,0.4-0.2c0.2,0.1,0.3,0.3,0.5,0.5
		C9.9,15.7,9.8,15.8,9.6,16z"/>
	<path fill="#FFFFFF" d="M39.9,15.3c-0.3-0.2-0.4-0.5-0.1-0.7c0.1-0.1,0.5-0.1,0.5,0C40.6,15.1,40.1,15.1,39.9,15.3z"/>
	<path fill="#4F50B3" d="M24.6,20.7c-0.1,0.1-0.1,0.2-0.2,0.3c-0.3,0.6-0.1,1,0.5,1.1c0.4,0,0.8-0.1,1.2-0.1c0-0.1,0-0.1,0-0.2
		c-0.3-0.1-0.5-0.2-0.8-0.3c0.1-0.4,0.2-0.6,0.7-0.5c0.6,0,1.2,0,1.9,0c0.2,0,0.4-0.1,0.4-0.3c0-0.2,0.2-0.4,0.2-0.6
		c0,0,0.1,0,0.1,0c0,0.1,0,0.2,0,0.4c-0.1,0.3,0.1,0.5,0.4,0.5c0.3,0,0.6,0,0.8,0c0.3,0,0.4-0.1,0.4-0.4c-0.1-0.5-0.2-0.9-0.3-1.4
		c0-0.2,0-0.4,0.1-0.6c0.3,0.2,0.5,0.4,0.6,0.5c-0.1,0.5-0.2,1-0.3,1.7c0.2-0.1,0.3-0.1,0.4-0.2c0.3-0.1,0.5-0.3,0.8-0.5
		c0.3-0.2,0.6-0.1,0.8,0.1c0.2,0.2,0.3,0.4,0.2,0.7c-0.2,0.3-0.2,0.6-0.7,0.6c-1,0-2,0-3,0c-0.2,0-0.4-0.1-0.6-0.1
		c-0.1,0-0.1-0.1-0.1-0.1c-0.4,0.3-0.8,0.1-1.3,0.2c-0.2,0-0.4,0.2-0.5,0.3c-0.4,0.7-1.4,1-2.1,0.7c-0.4-0.2-0.6-0.6-0.4-1.1
		c0.1-0.3,0.3-0.6,0.5-0.9C24.5,20.6,24.6,20.6,24.6,20.7z M30.8,20.9c0.5,0,0.9,0,1.4,0C31.9,20.3,31.4,20.3,30.8,20.9z"/>
	<path fill="#4F50B3" d="M28.1,28.5c-0.2,0-0.4,0-0.6,0c0-1.1,0-2.1,0-3.2c0.2,0,0.4,0,0.6,0c0,0.3,0,0.7,0,1c0,0.2,0.1,0.3,0.3,0.3
		c0.9,0.1,0.9,0.1,0.9-0.9c0-0.1,0-0.3,0-0.5c0.2,0,0.4,0,0.6,0c0,0.2,0,0.3,0,0.5c0,0.7,0,1.5,0,2.2c0,0.5,0,0.5-0.6,0.4
		c0-0.4,0-0.7,0-1.1c0-0.3-0.1-0.4-0.4-0.4c-1,0-0.8-0.1-0.8,0.8C28.1,28,28.1,28.2,28.1,28.5z"/>
	<path fill="#4F50B3" d="M24.1,28.6c0-1.1,0-2.1,0-3.3c0.6,0,1.2,0.1,1.7,0.1c0.1,0,0.2,0.1,0.3,0.1c0.6,0.5,0.6,1.2,0.5,1.9
		c-0.1,0.7-0.6,1-1.2,1.1C24.9,28.6,24.5,28.6,24.1,28.6z M26,26.9c0-0.9-0.3-1.3-1-1.4c-0.2,0-0.4,0.1-0.4,0.3c0,0.7,0,1.4,0,2.1
		c0,0.3,0.2,0.4,0.4,0.4c0.3,0,0.6-0.2,0.7-0.5C25.9,27.5,26,27.2,26,26.9z"/>
	<path fill="#4F50B3" d="M33.6,25.3c0.3,0,0.6,0,0.9,0c0.4,0,0.7,0.1,0.8,0.5c0.1,0.4,0,0.7-0.3,0.9c0,0-0.1,0.1-0.1,0.1
		c0.4,0.3,0.6,0.6,0.5,1.1c-0.1,0.4-0.3,0.6-0.7,0.6c-0.3,0-0.7,0-1.1,0C33.6,27.5,33.6,26.4,33.6,25.3z M34.2,27.6c0,0,0,0.1,0,0.1
		c0,0.2-0.1,0.5,0.2,0.6c0.3,0,0.4-0.3,0.4-0.6c0-0.1,0-0.3-0.1-0.4c-0.1-0.1-0.3-0.2-0.4-0.3c-0.1,0.1-0.1,0.3-0.2,0.4
		C34.1,27.5,34.2,27.5,34.2,27.6z M34,26.1c0.1,0.2,0.2,0.6,0.3,0.6c0.3,0,0.4-0.3,0.4-0.6c0-0.3-0.1-0.6-0.4-0.6
		C34.3,25.6,34.2,25.9,34,26.1z"/>
	<path fill="#4F50B3" d="M18.2,26.8c0.5,0.2,0.6,0.6,0.6,1c-0.1,0.4-0.3,0.7-0.7,0.7c-0.4,0-0.7,0-1.1,0c0-1.1,0-2.1,0-3.2
		c0.4,0,0.7,0,1,0c0.3,0,0.6,0.1,0.7,0.5c0.1,0.4,0.1,0.7-0.3,0.9C18.3,26.7,18.3,26.8,18.2,26.8z"/>
	<path fill="#FFFFFF" d="M17.5,27.6C17.5,27.6,17.5,27.6,17.5,27.6c0,0.1,0,0.1,0,0.2c0,0.2-0.1,0.5,0.2,0.5c0.3,0,0.4-0.2,0.5-0.5
		c0-0.1,0-0.3,0-0.4c-0.1-0.2-0.3-0.3-0.5-0.4c-0.1,0.2-0.1,0.3-0.2,0.5C17.5,27.5,17.5,27.5,17.5,27.6z"/>
	<path d="M17.4,26.1c0.1,0.2,0.2,0.6,0.3,0.6c0.3,0,0.4-0.3,0.4-0.5c0-0.4-0.2-0.7-0.4-0.6C17.6,25.6,17.5,25.9,17.4,26.1z"/>
	<path fill="#4F50B3" d="M32.5,22.1c0.7,0.3,1.2,0,1.7-0.6c-0.2-0.1-0.3-0.1-0.4-0.1c-0.4-0.1-0.5-0.3-0.4-0.6
		c0.1-0.2,0.2-0.5,0.3-0.7c0.2-0.4,0.5-0.3,0.7,0.1c0.1,0.1,0.1,0.2,0.1,0.3c0,0.4,0.3,0.5,0.6,0.5c0.2,0,0.4,0,0.6,0
		c0-0.4-0.5-0.8,0-1.1c0.4,0.4,0.4,0.9,0.2,1.5c0,0.1-0.1,0.1-0.2,0.2c-0.1,0-0.2,0-0.3,0c-0.6-0.1-1,0-1.3,0.7
		C33.8,22.8,33.3,22.7,32.5,22.1z M34,20.9c0-0.1,0.1-0.1,0.1-0.2c-0.1-0.1-0.2-0.2-0.3-0.4c-0.1,0.1-0.1,0.2-0.2,0.2
		C33.8,20.7,33.9,20.8,34,20.9z"/>
	<path fill="#4F50B3" d="M22,25.4c0,0.7,0,1.4,0,2.1c0,0.7-0.5,1.1-1.2,1.1c-0.7,0-1.1-0.4-1.2-1.1c0-0.7,0-1.3-0.1-2
		c0-0.1,0-0.1,0-0.2c0.2,0,0.4,0,0.6,0c0,0.5,0,1,0,1.5c0,0.3,0,0.6,0,0.8c0,0.4,0.2,0.6,0.6,0.7c0.4,0,0.7-0.2,0.8-0.6
		c0.1-0.3,0.1-0.7,0.1-1c0-0.4,0-0.8,0-1.1C21.7,25.5,21.8,25.4,22,25.4C21.9,25.3,21.9,25.3,22,25.4z"/>
	<path fill="#4F50B3" d="M19.5,30.6c0.6-0.1,0.6-0.1,0.6,0.4c0,0.6,0,1.2,0,1.7c0,0.5,0.3,0.8,0.7,0.8c0.4,0,0.8-0.3,0.8-0.8
		c0-0.5,0-1.1,0-1.6c0-0.1,0-0.2,0-0.3c0-0.1,0.1-0.2,0.2-0.3c0,0.1,0.1,0.2,0.1,0.3c0,0.6,0,1.2,0,1.8c0,0.4-0.1,0.8-0.5,1
		c-0.5,0.2-0.9,0.2-1.4-0.1c-0.2-0.1-0.3-0.3-0.3-0.5C19.6,32.3,19.5,31.5,19.5,30.6z"/>
	<path fill="#4F50B3" d="M33,28.5c-0.6,0.1-0.6,0.1-0.8-0.4c-0.1-0.5-0.6-0.7-1-0.5c-0.2,0.1-0.2,0.4-0.3,0.6
		c-0.1,0.1-0.2,0.2-0.3,0.3c0,0-0.1-0.1-0.1-0.1c0.1-0.4,0.2-0.7,0.4-1.1c0.2-0.7,0.4-1.3,0.7-2c0-0.1,0.1-0.2,0.2-0.2
		c0.1,0,0.2,0.1,0.2,0.2C32.3,26.4,32.6,27.5,33,28.5z M31.7,26.4c-0.1,0-0.1,0-0.2,0c-0.1,0.3-0.2,0.6-0.3,0.9c0.3,0,0.5,0,0.7,0
		C31.8,26.9,31.8,26.7,31.7,26.4z"/>
	<path fill="#4F50B3" d="M16.3,28.5c-0.5,0.2-0.7,0-0.8-0.5c0-0.5-0.4-0.4-0.7-0.4c-0.3,0-0.4,0.1-0.5,0.4c-0.1,0.2,0,0.5-0.5,0.5
		c0.4-1.1,0.7-2.1,1-3.2c0.1-0.2,0.3-0.2,0.4,0C15.6,26.4,15.9,27.5,16.3,28.5z M15,26.4c0,0-0.1,0-0.1,0c-0.1,0.3-0.2,0.6-0.3,0.9
		c0.3,0,0.5,0,0.7,0C15.1,26.9,15.1,26.6,15,26.4z"/>
	<path fill="#4F50B3" d="M23.9,33.7c0.3-1,0.6-2,1-3c0-0.1,0.1-0.2,0.2-0.2c0,0,0.2,0.1,0.2,0.2c0.3,1,0.7,2,1,3c0,0,0,0.1,0,0.1
		c-0.5,0.1-0.6,0.1-0.7-0.4c-0.1-0.4-0.2-0.5-0.6-0.5c-0.4,0-0.6,0.2-0.6,0.6C24.2,33.6,24.2,33.8,23.9,33.7z"/>
	<path fill="#FFFFFF" d="M25.3,32.5c-0.1-0.3-0.2-0.6-0.3-0.9c0,0-0.1,0-0.1,0c-0.1,0.3-0.2,0.6-0.3,0.9
		C24.8,32.5,25,32.5,25.3,32.5z"/>
	<path fill="#4F50B3" d="M19.6,23c-0.5,0.5-1.7,0.6-2.1,0.2c-0.4-0.3-0.3-0.7-0.2-1.1c0.1-0.3,0.2-0.5,0.3-0.8
		c-0.5-0.6-0.5-1.1,0.1-1.6c0.3-0.2,0.5-0.2,0.9,0.3c-0.2,0-0.4,0-0.6,0c-0.2,0-0.3,0.2-0.4,0.3c0.1,0.1,0.3,0.3,0.5,0.4
		c0.2,0,0.4-0.1,0.6-0.2c0.1,0,0.2,0,0.2-0.1c0,0,0.1,0.1,0.1,0.1c-0.1,0.1-0.2,0.3-0.4,0.4c-0.3,0.2-0.6,0.4-0.9,0.6
		c-0.5,0.5-0.3,1.1,0.4,1.3c0.2,0.1,0.5,0.1,0.7,0.1C19.1,23,19.4,23,19.6,23z"/>
	<path fill="#4F50B3" d="M36.9,28.5c-0.2,0-0.4,0-0.6,0c0-1.1,0-2.1,0-3.2c0.2,0,0.4,0,0.6,0C36.9,26.4,36.9,27.4,36.9,28.5z"/>
	<path fill="#4F50B3" d="M15.1,20.4c-0.2,0-0.5,0-0.7,0c0.1-0.1,0.1-0.3,0.2-0.4c0.2-0.3,0.4-0.3,0.7-0.1c0.6,0.5,0.7,0.7,0.4,1.2
		c-0.3,0-0.5-0.1-0.8-0.1c-0.4,0-0.5,0.2-0.4,0.6c0.1,0.4,0,0.8,0,1.3c0,0-0.1,0-0.1,0c-0.1-0.5-0.2-1-0.2-1.5
		c0-0.2,0.2-0.5,0.4-0.7c0.1-0.1,0.3-0.1,0.5-0.2C15.1,20.5,15.1,20.4,15.1,20.4z"/>
	<path fill="#4F50B3" d="M21.9,21c-0.2-0.6-0.1-0.6,0.4-0.6c0.3,0,0.6,0,1,0c0.2,0,0.3,0.1,0.3,0.3c0,0.2-0.1,0.3-0.3,0.3
		C22.9,21,22.4,21,21.9,21z"/>
	<path fill="#4F50B3" d="M20.5,21.7c-0.1-0.6-0.2-1.2-0.2-1.8c0-0.3,0.1-0.5,0.2-0.8C20.7,20,21,20.9,20.5,21.7z"/>
	<path fill="#4F50B3" d="M36.8,18.9c0.1,0.9,0.3,1.7,0,2.6C36.7,20.6,36.2,19.7,36.8,18.9z"/>
	<path fill="#4F50B3" d="M23.7,33.5c-0.3,0.2-0.5,0.4-0.7,0.5c-0.3,0-0.5-0.3-0.4-0.5c0-0.3,0.2-0.5,0.5-0.5
		C23.2,33,23.4,33.2,23.7,33.5z"/>
	<path fill="#4F50B3" d="M31.4,33.6c-0.2,0.1-0.3,0.4-0.5,0.4c-0.3,0-0.4-0.2-0.4-0.5c0-0.3,0.1-0.5,0.4-0.5
		C31.2,32.9,31.3,33.2,31.4,33.6z"/>
	<path fill="#4F50B3" d="M27.8,33.4c-0.3,0.2-0.4,0.5-0.6,0.5c-0.3,0.1-0.5-0.2-0.5-0.5c0-0.3,0.1-0.5,0.4-0.5
		C27.4,33,27.5,33.2,27.8,33.4z"/>
	<path fill="#4F50B3" d="M27.1,22.4c0.4-0.6,0.6-0.6,1,0C27.7,22.9,27.5,22.9,27.1,22.4z"/>
	<path fill="#4F50B3" d="M24.2,23.2c0.2-0.3,0.3-0.4,0.6-0.2c0.1,0,0.2,0.1,0.3,0c0.3-0.3,0.4-0.1,0.7,0.1c-0.1,0.2-0.2,0.4-0.5,0.2
		c-0.1-0.1-0.3,0-0.5,0c0,0,0,0.1,0,0.1C24.5,23.4,24.4,23.3,24.2,23.2z"/>
	<path fill="#4F50B3" d="M35.8,22.5c-0.4,0.4-0.4,0.4-0.9,0C35.2,22,35.3,22,35.8,22.5z"/>
	<path fill="#4F50B3" d="M31,19.2c0.1-0.1,0.3-0.3,0.4-0.4c0.2,0.2,0.3,0.3,0.4,0.4C31.5,19.7,31.4,19.7,31,19.2z"/>
	<path fill="#4F50B3" d="M16.9,21.2c-0.2,0.4-0.4,0.3-0.6,0C16.5,20.7,16.5,20.7,16.9,21.2z"/>
	<path fill="#4F50B3" d="M20,21.2c-0.2,0.1-0.3,0.2-0.4,0.2c-0.1,0-0.3-0.2-0.3-0.3c0-0.1,0.2-0.3,0.3-0.3
		C19.7,20.9,19.8,21,20,21.2z"/>
	<path fill="#4F50B3" d="M13.4,20.8c0.1,0.2,0.3,0.3,0.3,0.4c0,0.1-0.2,0.3-0.3,0.3c-0.1,0-0.3-0.2-0.3-0.3
		C13.1,21,13.3,20.9,13.4,20.8z"/>
	<path fill="#FFFFFF" d="M30.8,20.9c0.7-0.6,1.1-0.6,1.4,0C31.7,20.9,31.3,20.9,30.8,20.9z"/>
	<path fill="#FFFFFF" d="M26,26.9c-0.1,0.3-0.1,0.6-0.2,0.8c-0.1,0.3-0.4,0.5-0.7,0.5c-0.3,0-0.4,0-0.4-0.4c0-0.7,0-1.4,0-2.1
		c0-0.3,0.1-0.3,0.4-0.3C25.7,25.6,26,26,26,26.9z"/>
	<path fill="#FFFFFF" d="M34.2,27.6c0-0.1,0-0.1,0-0.2c0-0.1,0.1-0.3,0.2-0.4c0.2,0.1,0.3,0.2,0.4,0.3c0.1,0.1,0.1,0.3,0.1,0.4
		c0,0.3-0.1,0.6-0.4,0.6c-0.4,0-0.2-0.4-0.2-0.6C34.1,27.7,34.2,27.7,34.2,27.6z"/>
	<path fill="#FFFFFF" d="M34,26.1c0.1-0.2,0.2-0.5,0.4-0.6c0.3,0,0.4,0.3,0.4,0.6c0,0.3-0.1,0.6-0.4,0.6
		C34.3,26.7,34.2,26.4,34,26.1z"/>
	<path fill="#FFFFFF" d="M17.4,26.1c0.1-0.2,0.2-0.5,0.3-0.5c0.2-0.1,0.4,0.2,0.4,0.6c0,0.3-0.1,0.6-0.4,0.5
		C17.6,26.7,17.5,26.3,17.4,26.1z"/>
	<path fill="#FFFFFF" d="M34,20.9c-0.1-0.1-0.3-0.2-0.4-0.3c0.1-0.1,0.1-0.2,0.2-0.2c0.1,0.1,0.2,0.2,0.3,0.4
		C34.1,20.8,34.1,20.9,34,20.9z"/>
	<path fill="#FFFFFF" d="M31.7,26.4c0.1,0.3,0.2,0.5,0.3,0.9c-0.3,0-0.5,0-0.7,0c0.1-0.3,0.2-0.6,0.3-0.9
		C31.6,26.4,31.6,26.4,31.7,26.4z"/>
	<path fill="#FFFFFF" d="M15,26.4c0.1,0.3,0.2,0.5,0.3,0.9c-0.2,0-0.4,0-0.7,0c0.1-0.4,0.2-0.7,0.3-0.9C14.9,26.4,14.9,26.4,15,26.4
		z"/>
	<g>
		<g>
			<path fill="#4F50B3" d="M29.9,32.4h-1.3v0.8H30l-0.1,0.5h-1.9v-3.1h1.9v0.5h-1.3v0.7h1.3V32.4z"/>
		</g>
	</g>
</g>
</svg>
